# Blender 3.3.0
# www.blender.org
mtllib OliveFlower_open.mtl
o pedicel
v -0.000342 0.025000 -0.000463
v 0.339791 0.025000 -0.000463
v -0.000342 0.012500 -0.022114
v 0.339791 0.012500 -0.022114
v -0.000342 -0.012500 -0.022114
v 0.339791 -0.012500 -0.022114
v -0.000342 -0.025000 -0.000463
v 0.339791 -0.025000 -0.000463
v -0.000342 -0.012500 0.021187
v 0.339791 -0.012500 0.021187
v -0.000342 0.012500 0.021187
v 0.339791 0.012500 0.021187
vn -0.0000 0.8660 -0.5000
vn -0.0000 -0.0000 -1.0000
vn -0.0000 -0.8660 -0.5000
vn -0.0000 -0.8660 0.5000
vn -0.0000 -0.0000 1.0000
vn -0.0000 0.8660 0.5000
s 0
usemtl Material
f 1//1 2//1 4//1 3//1
f 3//2 4//2 6//2 5//2
f 5//3 6//3 8//3 7//3
f 7//4 8//4 10//4 9//4
f 9//5 10//5 12//5 11//5
f 11//6 12//6 2//6 1//6
o petal
v 0.335431 0.002043 -0.001139
v 0.357537 -0.092598 0.232949
v 0.352175 -0.240849 0.028574
v 0.389210 -0.334389 0.234050
v 0.335431 -0.000535 -0.000286
v 0.357537 0.094106 -0.234375
v 0.352176 0.242357 -0.029999
v 0.396015 0.301473 -0.214744
v 0.334417 -0.000213 -0.000222
v 0.356523 0.233875 0.094418
v 0.351162 0.029500 0.242670
v 0.387221 0.234976 0.336210
v 0.334417 0.001721 -0.001204
v 0.356523 -0.232367 -0.095844
v 0.351162 -0.027992 -0.244096
v 0.406796 -0.233468 -0.337636
v 0.342645 -0.056678 -0.007327
v 0.342645 0.006506 -0.056430
v 0.342645 -0.007575 0.055857
v 0.342645 0.055609 0.006754
v 0.325138 0.001076 -0.000168
v 0.347244 -0.093564 0.233920
v 0.341882 -0.241816 0.029545
v 0.378917 -0.335356 0.235021
v 0.325186 0.000696 -0.001448
v 0.347292 0.095336 -0.235536
v 0.341930 0.243588 -0.031161
v 0.385770 0.302703 -0.215905
v 0.324121 0.000744 0.000725
v 0.346227 0.234832 0.095365
v 0.340865 0.030457 0.243617
v 0.376925 0.235933 0.337157
v 0.324194 0.000485 -0.002538
v 0.346300 -0.233604 -0.097179
v 0.340938 -0.029228 -0.245430
v 0.396573 -0.234704 -0.338971
v 0.332261 -0.056678 -0.007327
v 0.332261 0.006506 -0.056430
v 0.332261 -0.007575 0.055857
v 0.332261 0.055609 0.006754
vn 0.9913 0.0931 -0.0935
vn 0.9866 -0.1185 0.1118
vn 0.9916 -0.0922 -0.0912
vn 0.9845 0.1191 0.1286
vn 1.0000 -0.0000 -0.0000
vn -0.9913 -0.0931 0.0935
vn -0.9866 0.1185 -0.1118
vn -0.9916 0.0922 0.0912
vn -0.9845 -0.1191 -0.1286
vn -1.0000 -0.0000 -0.0000
vn -0.0814 -0.1265 -0.9886
vn -0.0511 0.9242 0.3785
vn 0.0924 0.0166 0.9956
vn 0.0454 -0.9061 -0.4207
vn -0.0966 0.1274 0.9871
vn -0.0678 -0.9227 -0.3795
vn 0.1208 0.0713 -0.9901
vn 0.0771 0.9441 0.3204
vn -0.0803 -0.9887 0.1265
vn -0.0498 0.3784 -0.9243
vn 0.0911 0.9957 -0.0161
vn 0.0443 -0.4203 0.9063
vn -0.1026 0.9865 -0.1278
vn -0.0745 -0.3798 0.9221
vn 0.1163 -0.9928 0.0287
vn 0.0659 0.4281 -0.9013
vn -0.0000 -0.7896 0.6136
vn -0.0000 -0.6136 -0.7896
vn -0.0000 0.7896 -0.6136
vn -0.0000 0.6136 0.7896
s 0
usemtl Material.001
f 13//7 14//7 16//7 15//7
f 17//8 18//8 20//8 19//8
f 21//9 22//9 24//9 23//9
f 25//10 26//10 28//10 27//10
f 33//12 35//12 36//12 34//12
f 37//13 39//13 40//13 38//13
f 41//14 43//14 44//14 42//14
f 45//15 47//15 48//15 46//15
f 13//17 15//17 35//17 33//17
f 14//18 13//18 33//18 34//18
f 16//19 14//19 34//19 36//19
f 15//20 16//20 36//20 35//20
f 17//21 19//21 39//21 37//21
f 18//22 17//22 37//22 38//22
f 20//23 18//23 38//23 40//23
f 19//24 20//24 40//24 39//24
f 21//25 23//25 43//25 41//25
f 22//26 21//26 41//26 42//26
f 24//27 22//27 42//27 44//27
f 23//28 24//28 44//28 43//28
f 25//29 27//29 47//29 45//29
f 26//30 25//30 45//30 46//30
f 28//31 26//31 46//31 48//31
f 27//32 28//32 48//32 47//32
usemtl Material.002
f 29//11 30//11 32//11 31//11
f 49//16 51//16 52//16 50//16
f 29//33 31//33 51//33 49//33
f 30//34 29//34 49//34 50//34
f 32//35 30//35 50//35 52//35
f 31//36 32//36 52//36 51//36
