  0
SECTION
  2
HEADER
  9
$ACADVER
  1
AC1015
  9
$ACADMAINTVER
 70
     6
  9
$DWGCODEPAGE
  3
ANSI_1252
  9
$INSBASE
 10
0.0
 20
0.0
 30
0.0
  9
$EXTMIN
 10
-518.397085
 20
1026.947982
 30
0.0
  9
$EXTMAX
 10
3838.056635
 20
3328.251286
 30
0.0
  9
$LIMMIN
 10
0.0
 20
0.0
  9
$LIMMAX
 10
0.0
 20
0.0
  9
$ORTHOMODE
 70
     0
  9
$REGENMODE
 70
     1
  9
$FILLMODE
 70
     1
  9
$QTEXTMODE
 70
     0
  9
$MIRRTEXT
 70
     1
  9
$LTSCALE
 40
1.0
  9
$ATTMODE
 70
     1
  9
$TEXTSIZE
 40
0.2
  9
$TRACEWID
 40
0.05
  9
$TEXTSTYLE
  7
Standard
  9
$CLAYER
  8
0
  9
$CELTYPE
  6
Continuous
  9
$CECOLOR
 62
   256
  9
$CELTSCALE
 40
1.0
  9
$DISPSILH
 70
     0
  9
$DIMSCALE
 40
1.0
  9
$DIMASZ
 40
0.18
  9
$DIMEXO
 40
0.0625
  9
$DIMDLI
 40
0.38
  9
$DIMRND
 40
0.0
  9
$DIMDLE
 40
0.0
  9
$DIMEXE
 40
0.18
  9
$DIMTP
 40
0.0
  9
$DIMTM
 40
0.0
  9
$DIMTXT
 40
0.18
  9
$DIMCEN
 40
0.09
  9
$DIMTSZ
 40
0.0
  9
$DIMTOL
 70
     0
  9
$DIMLIM
 70
     0
  9
$DIMTIH
 70
     1
  9
$DIMTOH
 70
     1
  9
$DIMSE1
 70
     0
  9
$DIMSE2
 70
     0
  9
$DIMTAD
 70
     0
  9
$DIMZIN
 70
     0
  9
$DIMBLK
  1

  9
$DIMASO
 70
     1
  9
$DIMSHO
 70
     1
  9
$DIMPOST
  1

  9
$DIMAPOST
  1

  9
$DIMALT
 70
     0
  9
$DIMALTD
 70
     2
  9
$DIMALTF
 40
25.4
  9
$DIMLFAC
 40
1.0
  9
$DIMTOFL
 70
     0
  9
$DIMTVP
 40
0.0
  9
$DIMTIX
 70
     0
  9
$DIMSOXD
 70
     0
  9
$DIMSAH
 70
     0
  9
$DIMBLK1
  1

  9
$DIMBLK2
  1

  9
$DIMSTYLE
  2
Standard
  9
$DIMCLRD
 70
     0
  9
$DIMCLRE
 70
     0
  9
$DIMCLRT
 70
     0
  9
$DIMTFAC
 40
1.0
  9
$DIMGAP
 40
0.09
  9
$DIMJUST
 70
     0
  9
$DIMSD1
 70
     0
  9
$DIMSD2
 70
     0
  9
$DIMTOLJ
 70
     1
  9
$DIMTZIN
 70
     0
  9
$DIMALTZ
 70
     0
  9
$DIMALTTZ
 70
     0
  9
$DIMUPT
 70
     0
  9
$DIMDEC
 70
     4
  9
$DIMTDEC
 70
     4
  9
$DIMALTU
 70
     2
  9
$DIMALTTD
 70
     2
  9
$DIMTXSTY
  7
Standard
  9
$DIMAUNIT
 70
     0
  9
$DIMADEC
 70
     0
  9
$DIMALTRND
 40
0.0
  9
$DIMAZIN
 70
     0
  9
$DIMDSEP
 70
     0
  9
$DIMATFIT
 70
     3
  9
$DIMFRAC
 70
     0
  9
$DIMLDRBLK
  1

  9
$DIMLUNIT
 70
     2
  9
$DIMLWD
 70
     0
  9
$DIMLWE
 70
     0
  9
$DIMTMOVE
 70
     0
  9
$LUNITS
 70
     2
  9
$LUPREC
 70
     4
  9
$SKETCHINC
 40
0.1
  9
$FILLETRAD
 40
0.0
  9
$AUNITS
 70
     0
  9
$AUPREC
 70
     0
  9
$MENU
  1
acad
  9
$ELEVATION
 40
0.0
  9
$PELEVATION
 40
0.0
  9
$THICKNESS
 40
0.0
  9
$LIMCHECK
 70
     0
  9
$CHAMFERA
 40
0.0
  9
$CHAMFERB
 40
0.0
  9
$CHAMFERC
 40
0.0
  9
$CHAMFERD
 40
0.0
  9
$SKPOLY
 70
     0
  9
$TDCREATE
 40
0.000000000
  9
$TDUCREATE
 40
0.000000000
  9
$TDUPDATE
 40
0.000000000
  9
$TDUUPDATE
 40
0.000000000
  9
$TDINDWG
 40
0.0000000000
  9
$TDUSRTIMER
 40
0.0000000000
  9
$USRTIMER
 70
     1
  9
$ANGBASE
 50
0.0
  9
$ANGDIR
 70
     0
  9
$PDMODE
 70
     2
  9
$PDSIZE
 40
-1.0
  9
$PLINEWID
 40
0.0
  9
$SPLFRAME
 70
     0
  9
$SPLINETYPE
 70
     6
  9
$SPLINESEGS
 70
     8
  9
$HANDSEED
  5
224
  9
$SURFTAB1
 70
     6
  9
$SURFTAB2
 70
     6
  9
$SURFTYPE
 70
     6
  9
$SURFU
 70
     6
  9
$SURFV
 70
     6
  9
$UCSBASE
  2

  9
$UCSNAME
  2

  9
$UCSORG
 10
0.0
 20
0.0
 30
0.0
  9
$UCSXDIR
 10
1.0
 20
0.0
 30
0.0
  9
$UCSYDIR
 10
0.0
 20
1.0
 30
0.0
  9
$UCSORTHOREF
  2

  9
$UCSORTHOVIEW
 70
     0
  9
$UCSORGTOP
 10
0.0
 20
0.0
 30
0.0
  9
$UCSORGBOTTOM
 10
0.0
 20
0.0
 30
0.0
  9
$UCSORGLEFT
 10
0.0
 20
0.0
 30
0.0
  9
$UCSORGRIGHT
 10
0.0
 20
0.0
 30
0.0
  9
$UCSORGFRONT
 10
0.0
 20
0.0
 30
0.0
  9
$UCSORGBACK
 10
0.0
 20
0.0
 30
0.0
  9
$PUCSBASE
  2

  9
$PUCSNAME
  2

  9
$PUCSORG
 10
0.0
 20
0.0
 30
0.0
  9
$PUCSXDIR
 10
1.0
 20
0.0
 30
0.0
  9
$PUCSYDIR
 10
0.0
 20
1.0
 30
0.0
  9
$PUCSORTHOREF
  2

  9
$PUCSORTHOVIEW
 70
     0
  9
$PUCSORGTOP
 10
0.0
 20
0.0
 30
0.0
  9
$PUCSORGBOTTOM
 10
0.0
 20
0.0
 30
0.0
  9
$PUCSORGLEFT
 10
0.0
 20
0.0
 30
0.0
  9
$PUCSORGRIGHT
 10
0.0
 20
0.0
 30
0.0
  9
$PUCSORGFRONT
 10
0.0
 20
0.0
 30
0.0
  9
$PUCSORGBACK
 10
0.0
 20
0.0
 30
0.0
  9
$USERI1
 70
     0
  9
$USERI2
 70
     0
  9
$USERI3
 70
     0
  9
$USERI4
 70
     0
  9
$USERI5
 70
     0
  9
$USERR1
 40
0.0
  9
$USERR2
 40
0.0
  9
$USERR3
 40
0.0
  9
$USERR4
 40
0.0
  9
$USERR5
 40
0.0
  9
$WORLDVIEW
 70
     1
  9
$SHADEDGE
 70
     3
  9
$SHADEDIF
 70
    70
  9
$TILEMODE
 70
     1
  9
$MAXACTVP
 70
    16
  9
$PINSBASE
 10
0.0
 20
0.0
 30
0.0
  9
$PLIMCHECK
 70
     0
  9
$PEXTMIN
 10
1.000000E+20
 20
1.000000E+20
 30
1.000000E+20
  9
$PEXTMAX
 10
-1.000000E+20
 20
-1.000000E+20
 30
-1.000000E+20
  9
$PLIMMIN
 10
0.0
 20
0.0
  9
$PLIMMAX
 10
12.0
 20
9.0
  9
$UNITMODE
 70
     0
  9
$VISRETAIN
 70
     0
  9
$PLINEGEN
 70
     1
  9
$PSLTSCALE
 70
     0
  9
$TREEDEPTH
 70
  3020
  9
$CMLSTYLE
  2
Standard
  9
$CMLJUST
 70
     0
  9
$CMLSCALE
 40
1.0
  9
$PROXYGRAPHICS
 70
     0
  9
$MEASUREMENT
 70
     0
  9
$CELWEIGHT
370
     0
  9
$ENDCAPS
280
     0
  9
$JOINSTYLE
280
     0
  9
$LWDISPLAY
290
     1
  9
$INSUNITS
 70
     0
  9
$HYPERLINKBASE
  1

  9
$STYLESHEET
  1

  9
$XEDIT
290
     1
  9
$CEPSNTYPE
380
     0
  9
$PSTYLEMODE
290
     1
  9
$FINGERPRINTGUID
  2

  9
$VERSIONGUID
  2

  9
$EXTNAMES
290
     1
  9
$PSVPSCALE
 40
0.0
  0
ENDSEC
  0
SECTION
  2
CLASSES
  0
CLASS
  1
LWPOLYLINE
  2
AcDbPolyline
  3
AutoCAD 2000
 90
        0
280
     0
281
     1
  0
CLASS
  1
IMAGE
  2
AcDbRasterImage
  3
ISM
 90
      127
280
     0
281
     1
  0
CLASS
  1
OLE2FRAME
  2
AcDbOle2Frame
  3
AutoCAD 2000
 90
        0
280
     0
281
     1
  0
CLASS
  1
HATCH
  2
AcDbHatch
  3
AutoCAD 2000
 90
        0
280
     0
281
     1
  0
CLASS
  1
DICTIONARYVAR
  2
AcDbDictionaryVar
  3
AutoCAD 2000
 90
        0
280
     0
281
     0
  0
CLASS
  1
RASTERVARIABLES
  2
AcDbRasterVariables
  3
ISM
 90
        0
280
     0
281
     0
  0
CLASS
  1
IMAGEDEF
  2
AcDbRasterImageDef
  3
ISM
 90
        0
280
     0
281
     0
  0
CLASS
  1
IMAGEDEF_REACTOR
  2
AcDbRasterImageDefReactor
  3
ISM
 90
        1
280
     0
281
     0
  0
CLASS
  1
IDBUFFER
  2
AcDbIdBuffer
  3
AutoCAD 2000
 90
        0
280
     0
281
     0
  0
CLASS
  1
SPATIAL_FILTER
  2
AcDbSpatialFilter
  3
AutoCAD 2000
 90
        0
280
     0
281
     0
  0
CLASS
  1
XRECORD
  2
AcDbXrecord
  3
AutoCAD 2000
 90
        0
280
     0
281
     0
  0
CLASS
  1
SORTENTSTABLE
  2
AcDbSortentsTable
  3
AutoCAD 2000
 90
        0
280
     0
281
     0
  0
CLASS
  1
LAYER_INDEX
  2
AcDbLayerIndex
  3
AutoCAD 2000
 90
        0
280
     0
281
     0
  0
CLASS
  1
SPATIAL_INDEX
  2
AcDbSpatialIndex
  3
AutoCAD 2000
 90
        0
280
     0
281
     0
  0
CLASS
  1
OBJECT_PTR
  2
CAseDLPNTableRecord
  3
"ASE-LPNTableRecord"
 90
        1
280
     0
281
     0
  0
CLASS
  1
LAYOUT
  2
AcDbLayout
  3
AutoCAD 2000
 90
        0
280
     0
281
     0
  0
CLASS
  1
PLOTSETTINGS
  2
AcDbPlotSettings
  3
AutoCAD 2000
 90
        0
280
     0
281
     0
  0
CLASS
  1
ACDBDICTIONARYWDFLT
  2
AcDbDictionaryWithDefault
  3
AutoCAD 2000
 90
        0
280
     0
281
     0
  0
CLASS
  1
ACDBPLACEHOLDER
  2
AcDbPlaceHolder
  3
AutoCAD 2000
 90
        0
280
     0
281
     0
  0
CLASS
  1
VBA_PROJECT
  2
AcDbVbaProject
  3
acadvba
 90
        0
280
     0
281
     0
  0
CLASS
  1
WIPEOUT
  2
AcDbWipeout
  3
WipeOut|AutoCAD Express Tool|expresstools@autodesk.com
 90
      127
280
     0
281
     1
  0
CLASS
  1
WIPEOUTVARIABLES
  2
AcDbWipeoutVariables
  3
WipeOut|AutoCAD Express Tool|expresstools@autodesk.com
 90
        0
280
     0
281
     0
  0
CLASS
  1
RTEXT
  2
RText
  3
RText|AutoCAD Express Tool|expresstools@autodesk.com
 90
        0
280
     0
281
     1
  0
CLASS
  1
ARCALIGNEDTEXT
  2
AcDbArcAlignedText
  3
ATEXT|AutoCAD Express Tool|expresstools@autodesk.com
 90
        0
280
     0
281
     1
  0
ENDSEC
  0
SECTION
  2
TABLES
  0
TABLE
  2
VPORT
  5
7
100
AcDbSymbolTable
 70
     2
  0
VPORT
  5
15
100
AcDbSymbolTableRecord
100
AcDbViewportTableRecord
  2
*ACTIVE
 70
     0
 10
0.0
 20
0.0
 11
1.0
 21
1.0
 12
6.591288
 22
4.579184
 13
0.0
 23
0.0
 14
1.0
 24
1.0
 15
0.0
 25
0.0
 16
0.0
 26
0.0
 36
1.0
 17
0.0
 27
0.0
 37
0.0
 40
9.158369
 41
0.688564
 42
50.0
 43
0.0
 44
0.0
 50
0.0
 51
0.0
 71
     0
 72
   100
 73
     1
 74
     1
 75
     0
 76
     0
 77
     0
 78
     0
281
     0
 65
     0
110
0.0
120
0.0
130
0.0
111
1.0
121
0.0
131
0.0
112
0.0
122
1.0
132
0.0
345
0
346
0
 79
     0
146
0.0
  0
VPORT
  5
223
100
AcDbSymbolTableRecord
100
AcDbViewportTableRecord
  2
MYVPORT
 70
     0
 10
0.0
 20
0.0
 11
1.0
 21
1.0
 12
6.21
 22
9.02
 13
0.0
 23
0.0
 14
1.0
 24
1.0
 15
0.0
 25
0.0
 16
0.0
 26
0.0
 36
1.0
 17
0.0
 27
0.0
 37
0.0
 40
18.04
 41
0.688564
 42
50.0
 43
0.0
 44
0.0
 50
0.0
 51
0.0
 71
     0
 72
   100
 73
     1
 74
     1
 75
     0
 76
     0
 77
     0
 78
     0
281
     0
 65
     0
110
0.0
120
0.0
130
0.0
111
1.0
121
0.0
131
0.0
112
0.0
122
1.0
132
0.0
345
0
346
0
 79
     0
146
0.0
  0
ENDTAB
  0
TABLE
  2
LTYPE
  5
4
100
AcDbSymbolTable
 70
     3
  0
LTYPE
  5
11
100
AcDbSymbolTableRecord
100
AcDbLinetypeTableRecord
  2
ByBlock
 70
    64
  3

 72
    65
 73
     0
 40
0.0
  0
LTYPE
  5
12
100
AcDbSymbolTableRecord
100
AcDbLinetypeTableRecord
  2
ByLayer
 70
    64
  3

 72
    65
 73
     0
 40
0.0
  0
LTYPE
  5
13
100
AcDbSymbolTableRecord
100
AcDbLinetypeTableRecord
  2
Continuous
 70
    64
  3
Solid line
 72
    65
 73
     0
 40
0.0
  0
ENDTAB
  0
TABLE
  2
LAYER
  5
2
100
AcDbSymbolTable
 70
    24
  0
LAYER
  5
14
100
AcDbSymbolTableRecord
100
AcDbLayerTableRecord
  2
0
 70
     0
 62
     8
  6
Continuous
290
     1
370
    15
390
1D
  0
LAYER
  5
24
100
AcDbSymbolTableRecord
100
AcDbLayerTableRecord
  2
TEMPORARY
 70
     0
 62
    -9
  6
Continuous
290
     1
370
    15
390
1D
  0
LAYER
  5
25
100
AcDbSymbolTableRecord
100
AcDbLayerTableRecord
  2
TEXT
 70
     0
 62
     7
  6
Continuous
290
     1
370
    15
390
1D
  0
LAYER
  5
26
100
AcDbSymbolTableRecord
100
AcDbLayerTableRecord
  2
DRAWING_SYMBOLS
 70
     0
 62
     7
  6
Continuous
290
     1
370
    15
390
1D
  0
LAYER
  5
27
100
AcDbSymbolTableRecord
100
AcDbLayerTableRecord
  2
DRAWING
 70
     0
 62
     7
  6
Continuous
290
     1
370
    15
390
1D
  0
LAYER
  5
28
100
AcDbSymbolTableRecord
100
AcDbLayerTableRecord
  2
ELEVATIONS
 70
     0
 62
    20
  6
Continuous
290
     1
370
    15
390
1D
  0
LAYER
  5
29
100
AcDbSymbolTableRecord
100
AcDbLayerTableRecord
  2
OUTLETS
 70
     0
 62
     7
  6
Continuous
290
     1
370
    15
390
1D
  0
LAYER
  5
2A
100
AcDbSymbolTableRecord
100
AcDbLayerTableRecord
  2
CONTROL_VALVES
 70
     0
 62
     7
  6
Continuous
290
     1
370
    15
390
1D
  0
LAYER
  5
2B
100
AcDbSymbolTableRecord
100
AcDbLayerTableRecord
  2
ZONE_PIPES
 70
     0
 62
     7
  6
Continuous
290
     1
370
    15
390
1D
  0
LAYER
  5
2C
100
AcDbSymbolTableRecord
100
AcDbLayerTableRecord
  2
MAINLINE_PIPES
 70
     0
 62
     7
  6
Continuous
290
     1
370
    15
390
1D
  0
LAYER
  5
2D
100
AcDbSymbolTableRecord
100
AcDbLayerTableRecord
  2
SPRAYLINES
 70
     0
 62
     7
  6
Continuous
290
     1
370
    15
390
1D
  0
LAYER
  5
2E
100
AcDbSymbolTableRecord
100
AcDbLayerTableRecord
  2
ZONE_JUNCTIONS
 70
     0
 62
     7
  6
Continuous
290
     1
370
    15
390
1D
  0
LAYER
  5
2F
100
AcDbSymbolTableRecord
100
AcDbLayerTableRecord
  2
MAINLINE_JUNCTIONS
 70
     0
 62
     7
  6
Continuous
290
     1
370
    15
390
1D
  0
LAYER
  5
30
100
AcDbSymbolTableRecord
100
AcDbLayerTableRecord
  2
IRRIGATION_AREAS
 70
     0
 62
     4
  6
Continuous
290
     1
370
    15
390
1D
  0
LAYER
  5
31
100
AcDbSymbolTableRecord
100
AcDbLayerTableRecord
  2
MISC_HYDRAULIC
 70
     0
 62
     7
  6
Continuous
290
     1
370
    15
390
1D
  0
LAYER
  5
32
100
AcDbSymbolTableRecord
100
AcDbLayerTableRecord
  2
ELECTRICAL
 70
     0
 62
     7
  6
Continuous
290
     1
370
    15
390
1D
  0
LAYER
  5
33
100
AcDbSymbolTableRecord
100
AcDbLayerTableRecord
  2
SPRAYLINE_OUTLETS
 70
     0
 62
    -7
  6
Continuous
290
     1
370
    15
390
1D
  0
LAYER
  5
34
100
AcDbSymbolTableRecord
100
AcDbLayerTableRecord
  2
OUTLET_WETTED_RADII
 70
     0
 62
     7
  6
Continuous
290
     1
370
    15
390
1D
  0
LAYER
  5
35
100
AcDbSymbolTableRecord
100
AcDbLayerTableRecord
  2
SL_WETTED_RADII
 70
     0
 62
    -7
  6
Continuous
290
     1
370
    15
390
1D
  0
LAYER
  5
36
100
AcDbSymbolTableRecord
100
AcDbLayerTableRecord
  2
PLOT_TEMPLATE
 70
     0
 62
     1
  6
Continuous
290
     1
370
    15
390
1D
  0
LAYER
  5
37
100
AcDbSymbolTableRecord
100
AcDbLayerTableRecord
  2
ELECTRICAL_JUNCTIONS
 70
     0
 62
     7
  6
Continuous
290
     1
370
    15
390
1D
  0
LAYER
  5
38
100
AcDbSymbolTableRecord
100
AcDbLayerTableRecord
  2
WIRES
 70
     0
 62
     7
  6
Continuous
290
     1
370
    15
390
1D
  0
LAYER
  5
39
100
AcDbSymbolTableRecord
100
AcDbLayerTableRecord
  2
LABELS
 70
     0
 62
     7
  6
Continuous
290
     1
370
    15
390
1D
  0
LAYER
  5
3A
100
AcDbSymbolTableRecord
100
AcDbLayerTableRecord
  2
REPORTS
 70
     0
 62
     7
  6
Continuous
290
     1
370
    15
390
1D
  0
ENDTAB
  0
TABLE
  2
STYLE
  5
3
100
AcDbSymbolTable
 70
     3
  0
STYLE
  5
17
100
AcDbSymbolTableRecord
100
AcDbTextStyleTableRecord
  2
Standard
 70
     0
 40
0.0
 41
1.0
 50
0.0
 71
     0
 42
0.0
  3
txt
  4

  0
STYLE
  5
42
100
AcDbSymbolTableRecord
100
AcDbTextStyleTableRecord
  2
VC0_Arial
 70
     0
 40
0.0
 41
1.0
 50
0.0
 71
     0
 42
0.0
  3
arial.ttf
  4

  0
STYLE
  5
1E5
100
AcDbSymbolTableRecord
100
AcDbTextStyleTableRecord
  2
VC1_helvet
 70
     0
 40
0.0
 41
1.0
 50
0.0
 71
     0
 42
0.0
  3
helvet.shx
  4

  0
ENDTAB
  0
TABLE
  2
VIEW
  5
5
100
AcDbSymbolTable
 70
     0
  0
ENDTAB
  0
TABLE
  2
UCS
  5
6
100
AcDbSymbolTable
 70
     1
  0
UCS
  5
222
100
AcDbSymbolTableRecord
100
AcDbUCSTableRecord
  2
MYUCS
 70
     0
 10
0.0
 20
0.0
 30
0.0
 11
0.0
 21
1.0
 31
0.0
 12
0.0
 22
0.0
 32
1.0
 79
     0
146
0.0
  0
ENDTAB
  0
TABLE
  2
APPID
  5
8
100
AcDbSymbolTable
 70
     1
  0
APPID
  5
16
100
AcDbSymbolTableRecord
100
AcDbRegAppTableRecord
  2
ACAD
 70
     0
  0
ENDTAB
  0
TABLE
  2
DIMSTYLE
  5
9
100
AcDbSymbolTable
 70
     2
100
AcDbDimStyleTable
 71
     0
  0
DIMSTYLE
105
18
100
AcDbSymbolTableRecord
100
AcDbDimStyleTableRecord
  2
Standard
 70
     0
  3

  4

 40
1.0
 41
0.18
 42
0.0625
 43
0.38
 44
0.18
 45
0.0
 46
0.0
 47
0.0
 48
0.0
 71
     0
 72
     0
 73
     1
 74
     1
 75
     0
 76
     0
 77
     0
 78
     0
 79
     0
140
0.18
141
0.09
142
0.0
143
25.4
144
1.0
145
0.0
146
1.0
147
0.09
148
0.0
170
     0
171
     2
172
     0
173
     0
174
     0
175
     0
176
     0
177
     0
178
     0
179
     0
271
     4
272
     4
273
     2
274
     2
275
     0
276
     0
277
     2
278
    46
279
     0
280
     0
281
     0
282
     0
283
     1
284
     0
285
     0
286
     0
288
     0
289
     3
340
17
341
0
342
0
343
0
344
0
371
    -2
372
    -2
  0
DIMSTYLE
105
43
100
AcDbSymbolTableRecord
100
AcDbDimStyleTableRecord
  2
VCADD_DIMSTYLE
 70
     0
  3

  4

 40
1.0
 41
0.208333
 42
0.166667
 43
0.0
 44
0.016417
 45
0.0
 46
0.0
 47
0.15275
 48
0.221192
 71
     0
 72
     0
 73
     1
 74
     1
 75
     0
 76
     0
 77
     0
 78
     3
 79
     0
140
0.25
141
0.0
142
0.0
143
25.4
144
1.0
145
0.0
146
1.0
147
0.008333
148
0.0
170
     0
171
     2
172
     0
173
     0
174
     1
175
     0
176
     1
177
     1
178
     1
179
     2
271
     2
272
     4
273
     2
274
     2
275
     0
276
     0
277
     2
278
    46
279
     0
280
     0
281
     0
282
     0
283
     1
284
     0
285
     0
286
     0
288
     0
289
     3
340
42
341
0
342
0
343
0
344
0
371
    -2
372
    -2
  0
ENDTAB
  0
TABLE
  2
BLOCK_RECORD
  5
1
100
AcDbSymbolTable
 70
     5
  0
BLOCK_RECORD
  5
A
100
AcDbSymbolTableRecord
100
AcDbBlockTableRecord
  2
*MODEL_SPACE
340
20
  0
BLOCK_RECORD
  5
B
100
AcDbSymbolTableRecord
100
AcDbBlockTableRecord
  2
*PAPER_SPACE
340
21
  0
BLOCK_RECORD
  5
3B
100
AcDbSymbolTableRecord
100
AcDbBlockTableRecord
  2
_CLOSED
340
0
  0
BLOCK_RECORD
  5
53
100
AcDbSymbolTableRecord
100
AcDbBlockTableRecord
  2
Junction
340
0
102
{BLKREFS
331
5D
331
5E
331
7E
331
7F
331
94
331
95
331
AA
331
AB
331
C0
331
C1
331
D6
331
D7
331
EC
331
ED
331
102
331
103
331
118
331
119
331
12E
331
12F
331
144
331
145
331
15A
331
15B
331
170
331
171
331
186
331
187
331
19C
331
19D
331
1B2
331
1B3
331
1D3
331
1D4
331
1D5
331
1D6
331
1D7
331
1D8
331
1D9
331
1DA
331
1DB
331
1DC
331
1DD
331
1DE
331
1DF
331
1E0
331
1E1
331
1E2
102
}
  0
BLOCK_RECORD
  5
5F
100
AcDbSymbolTableRecord
100
AcDbBlockTableRecord
  2
i__DBS_SYMBOL_1
340
0
102
{BLKREFS
331
6A
331
6C
331
6E
331
70
331
72
331
74
331
76
331
78
331
7A
331
7C
331
80
331
82
331
84
331
86
331
88
331
8A
331
8C
331
8E
331
90
331
92
331
96
331
98
331
9A
331
9C
331
9E
331
A0
331
A2
331
A4
331
A6
331
A8
331
AC
331
AE
331
B0
331
B2
331
B4
331
B6
331
B8
331
BA
331
BC
331
BE
331
C2
331
C4
331
C6
331
C8
331
CA
331
CC
331
CE
331
D0
331
D2
331
D4
331
D8
331
DA
331
DC
331
DE
331
E0
331
E2
331
E4
331
E6
331
E8
331
EA
331
EE
331
F0
331
F2
331
F4
331
F6
331
F8
331
FA
331
FC
331
FE
331
100
331
104
331
106
331
108
331
10A
331
10C
331
10E
331
110
331
112
331
114
331
116
331
11A
331
11C
331
11E
331
120
331
122
331
124
331
126
331
128
331
12A
331
12C
331
130
331
132
331
134
331
136
331
138
331
13A
331
13C
331
13E
331
140
331
142
331
146
331
148
331
14A
331
14C
331
14E
331
150
331
152
331
154
331
156
331
158
331
15C
331
15E
331
160
331
162
331
164
331
166
331
168
331
16A
331
16C
331
16E
331
172
331
174
331
176
331
178
331
17A
331
17C
331
17E
331
180
331
182
331
184
331
188
331
18A
331
18C
331
18E
331
190
331
192
331
194
331
196
331
198
331
19A
331
19E
331
1A0
331
1A2
331
1A4
331
1A6
331
1A8
331
1AA
331
1AC
331
1AE
331
1B0
331
1B4
331
1B6
331
1B8
331
1BA
331
1BC
331
1BE
331
1C0
331
1C2
331
1C4
331
1C6
102
}
  0
BLOCK_RECORD
  5
1C8
100
AcDbSymbolTableRecord
100
AcDbBlockTableRecord
  2
Valve
340
0
102
{BLKREFS
331
1D2
102
}
  0
BLOCK_RECORD
  5
1E3
100
AcDbSymbolTableRecord
100
AcDbBlockTableRecord
  2
Water Supply
340
0
102
{BLKREFS
331
1F0
102
}
  0
ENDTAB
  0
ENDSEC
  0
SECTION
  2
BLOCKS
  0
BLOCK
  5
D
100
AcDbEntity
  8
0
390
0
100
AcDbBlockBegin
  2
*MODEL_SPACE
 70
     0
 10
0.0
 20
0.0
 30
0.0
  3
*MODEL_SPACE
  1

  0
ENDBLK
  5
E
100
AcDbEntity
  8
0
390
0
100
AcDbBlockEnd
  0
BLOCK
  5
F
100
AcDbEntity
 67
     1
  8
0
390
0
100
AcDbBlockBegin
  2
*PAPER_SPACE
 70
     0
 10
0.0
 20
0.0
 30
0.0
  3
*PAPER_SPACE
  1

  0
ENDBLK
  5
10
100
AcDbEntity
 67
     1
  8
0
390
0
100
AcDbBlockEnd
  0
BLOCK
  5
3C
100
AcDbEntity
  8
0
390
0
100
AcDbBlockBegin
  2
_CLOSED
 70
     0
 10
0.0
 20
0.0
 30
0.0
  3
_CLOSED
  1

  0
LINE
  5
3D
100
AcDbEntity
  8
0
370
    -2
390
0
  6
ByBlock
 62
     0
100
AcDbLine
 10
-1.0
 20
0.166667
 30
0.0
 11
0.0
 21
0.0
 31
0.0
  0
LINE
  5
3E
100
AcDbEntity
  8
0
370
    -2
390
0
  6
ByBlock
 62
     0
100
AcDbLine
 10
0.0
 20
0.0
 30
0.0
 11
-1.0
 21
-0.166667
 31
0.0
  0
LINE
  5
3F
100
AcDbEntity
  8
0
370
    -2
390
0
  6
ByBlock
 62
     0
100
AcDbLine
 10
-1.0
 20
0.166667
 30
0.0
 11
-1.0
 21
-0.166667
 31
0.0
  0
LINE
  5
40
100
AcDbEntity
  8
0
370
    -2
390
0
  6
ByBlock
 62
     0
100
AcDbLine
 10
0.0
 20
0.0
 30
0.0
 11
-1.0
 21
0.0
 31
0.0
  0
ENDBLK
  5
41
100
AcDbEntity
  8
0
390
0
100
AcDbBlockEnd
  0
BLOCK
  5
54
100
AcDbEntity
  8
0
390
0
100
AcDbBlockBegin
  2
Junction
 70
     0
 10
0.0
 20
0.0
 30
0.0
  3
Junction
  1

  0
HATCH
  5
55
100
AcDbEntity
  8
0
370
     0
390
0
  6
Continuous
 62
     8
100
AcDbHatch
 10
0.0
 20
0.0
 30
0.0
210
0.0
220
0.0
230
1.0
  2
SOLID
 70
     1
 71
     0
 91
        1
 92
        1
 93
        4
 72
     1
 10
-50.0000000000000284
 20
-50.0
 11
50.0000000000000284
 21
-50.0
 72
     1
 10
50.0000000000000284
 20
-50.0
 11
50.0000000000000284
 21
50.0
 72
     1
 10
50.0000000000000284
 20
50.0
 11
-50.0000000000000284
 21
50.0
 72
     1
 10
-50.0000000000000284
 20
50.0
 11
-50.0000000000000284
 21
-50.0
 97
        0
 75
     0
 76
     1
 98
        1
 10
0.0
 20
0.0
  0
POLYLINE
  5
56
100
AcDbEntity
  8
0
370
     0
390
0
  6
Continuous
 62
     8
100
AcDb2dPolyline
 66
     1
 10
0.0
 20
0.0
 30
0.0
 70
   129
  0
VERTEX
  5
57
100
AcDbEntity
  8
0
370
     0
390
0
  6
Continuous
 62
     8
100
AcDbVertex
100
AcDb2dVertex
 10
-50.0
 20
-50.0
 30
0.0
  0
VERTEX
  5
58
100
AcDbEntity
  8
0
370
     0
390
0
  6
Continuous
 62
     8
100
AcDbVertex
100
AcDb2dVertex
 10
50.0
 20
-50.0
 30
0.0
  0
VERTEX
  5
59
100
AcDbEntity
  8
0
370
     0
390
0
  6
Continuous
 62
     8
100
AcDbVertex
100
AcDb2dVertex
 10
50.0
 20
50.0
 30
0.0
  0
VERTEX
  5
5A
100
AcDbEntity
  8
0
370
     0
390
0
  6
Continuous
 62
     8
100
AcDbVertex
100
AcDb2dVertex
 10
-50.0
 20
50.0
 30
0.0
  0
SEQEND
  5
5B
100
AcDbEntity
  8
0
370
     0
390
0
  6
Continuous
 62
     8
  0
ENDBLK
  5
5C
100
AcDbEntity
  8
0
390
0
100
AcDbBlockEnd
  0
BLOCK
  5
60
100
AcDbEntity
  8
0
390
0
100
AcDbBlockBegin
  2
i__DBS_SYMBOL_1
 70
     0
 10
0.0
 20
0.0
 30
0.0
  3
i__DBS_SYMBOL_1
  1

  0
POLYLINE
  5
61
100
AcDbEntity
  8
0
370
     0
390
0
  6
Continuous
 62
     5
100
AcDb2dPolyline
 66
     1
 10
0.0
 20
0.0
 30
0.0
 70
   129
  0
VERTEX
  5
62
100
AcDbEntity
  8
0
370
     0
390
0
  6
Continuous
 62
     5
100
AcDbVertex
100
AcDb2dVertex
 10
-17.716536
 20
0.0
 30
0.0
  0
VERTEX
  5
63
100
AcDbEntity
  8
0
370
     0
390
0
  6
Continuous
 62
     5
100
AcDbVertex
100
AcDb2dVertex
 10
-8.858268
 20
-15.342963
 30
0.0
  0
VERTEX
  5
64
100
AcDbEntity
  8
0
370
     0
390
0
  6
Continuous
 62
     5
100
AcDbVertex
100
AcDb2dVertex
 10
8.858268
 20
-15.342963
 30
0.0
  0
VERTEX
  5
65
100
AcDbEntity
  8
0
370
     0
390
0
  6
Continuous
 62
     5
100
AcDbVertex
100
AcDb2dVertex
 10
17.716536
 20
0.0
 30
0.0
  0
VERTEX
  5
66
100
AcDbEntity
  8
0
370
     0
390
0
  6
Continuous
 62
     5
100
AcDbVertex
100
AcDb2dVertex
 10
8.858268
 20
15.342963
 30
0.0
  0
VERTEX
  5
67
100
AcDbEntity
  8
0
370
     0
390
0
  6
Continuous
 62
     5
100
AcDbVertex
100
AcDb2dVertex
 10
-8.858268
 20
15.342963
 30
0.0
  0
SEQEND
  5
68
100
AcDbEntity
  8
0
370
     0
390
0
  6
Continuous
 62
     5
  0
ENDBLK
  5
69
100
AcDbEntity
  8
0
390
0
100
AcDbBlockEnd
  0
BLOCK
  5
1C9
100
AcDbEntity
  8
0
390
0
100
AcDbBlockBegin
  2
Valve
 70
     0
 10
0.0
 20
0.0
 30
0.0
  3
Valve
  1

  0
POLYLINE
  5
1CA
100
AcDbEntity
  8
0
370
     0
390
0
  6
Continuous
 62
     8
100
AcDb2dPolyline
 66
     1
 10
0.0
 20
0.0
 30
0.0
 70
   129
  0
VERTEX
  5
1CB
100
AcDbEntity
  8
0
370
     0
390
0
  6
Continuous
 62
     8
100
AcDbVertex
100
AcDb2dVertex
 10
-50.0
 20
-25.0
 30
0.0
  0
VERTEX
  5
1CC
100
AcDbEntity
  8
0
370
     0
390
0
  6
Continuous
 62
     8
100
AcDbVertex
100
AcDb2dVertex
 10
-50.0
 20
25.0
 30
0.0
  0
VERTEX
  5
1CD
100
AcDbEntity
  8
0
370
     0
390
0
  6
Continuous
 62
     8
100
AcDbVertex
100
AcDb2dVertex
 10
50.0
 20
-25.0
 30
0.0
  0
VERTEX
  5
1CE
100
AcDbEntity
  8
0
370
     0
390
0
  6
Continuous
 62
     8
100
AcDbVertex
100
AcDb2dVertex
 10
50.0
 20
25.0
 30
0.0
  0
VERTEX
  5
1CF
100
AcDbEntity
  8
0
370
     0
390
0
  6
Continuous
 62
     8
100
AcDbVertex
100
AcDb2dVertex
 10
-50.0
 20
-25.0
 30
0.0
  0
SEQEND
  5
1D0
100
AcDbEntity
  8
0
370
     0
390
0
  6
Continuous
 62
     8
  0
ENDBLK
  5
1D1
100
AcDbEntity
  8
0
390
0
100
AcDbBlockEnd
  0
BLOCK
  5
1E4
100
AcDbEntity
  8
0
390
0
100
AcDbBlockBegin
  2
Water Supply
 70
     0
 10
0.0
 20
0.0
 30
0.0
  3
Water Supply
  1

  0
TEXT
  5
1E6
100
AcDbEntity
  8
0
370
     0
390
0
  6
Continuous
 62
     8
100
AcDbText
 10
-35.987236
 20
-25.999988
 30
0.0
 40
49.999977
  1
W
 41
1.0
  7
VC1_helvet
 72
     1
 11
0.0
 21
-25.999988
 31
0.0
100
AcDbText
  0
POLYLINE
  5
1E7
100
AcDbEntity
  8
0
370
     0
390
0
  6
Continuous
 62
     8
100
AcDb2dPolyline
 66
     1
 10
0.0
 20
0.0
 30
0.0
 70
   129
  0
VERTEX
  5
1E8
100
AcDbEntity
  8
0
370
     0
390
0
  6
Continuous
 62
     8
100
AcDbVertex
100
AcDb2dVertex
 10
-50.0
 20
0.0
 30
0.0
  0
VERTEX
  5
1E9
100
AcDbEntity
  8
0
370
     0
390
0
  6
Continuous
 62
     8
100
AcDbVertex
100
AcDb2dVertex
 10
-25.0
 20
-43.30125
 30
0.0
  0
VERTEX
  5
1EA
100
AcDbEntity
  8
0
370
     0
390
0
  6
Continuous
 62
     8
100
AcDbVertex
100
AcDb2dVertex
 10
25.0
 20
-43.30125
 30
0.0
  0
VERTEX
  5
1EB
100
AcDbEntity
  8
0
370
     0
390
0
  6
Continuous
 62
     8
100
AcDbVertex
100
AcDb2dVertex
 10
50.0
 20
0.0
 30
0.0
  0
VERTEX
  5
1EC
100
AcDbEntity
  8
0
370
     0
390
0
  6
Continuous
 62
     8
100
AcDbVertex
100
AcDb2dVertex
 10
25.0
 20
43.30125
 30
0.0
  0
VERTEX
  5
1ED
100
AcDbEntity
  8
0
370
     0
390
0
  6
Continuous
 62
     8
100
AcDbVertex
100
AcDb2dVertex
 10
-25.0
 20
43.30125
 30
0.0
  0
SEQEND
  5
1EE
100
AcDbEntity
  8
0
370
     0
390
0
  6
Continuous
 62
     8
  0
ENDBLK
  5
1EF
100
AcDbEntity
  8
0
390
0
100
AcDbBlockEnd
  0
ENDSEC
  0
SECTION
  2
ENTITIES
  0
VIEWPORT
  5
44
100
AcDbEntity
 67
     1
  8
0
390
0
  6
Continuous
 62
     0
100
AcDbViewport
 10
0.375
 20
0.271597
 30
0.0
 40
1.071429
 41
0.775991
 68
     1
 69
     1
 12
762.9316
 22
546.5183
 13
1169.457242
 23
377.488
 14
0.5
 24
0.5
 15
12.0
 25
12.0
 16
0.0
 26
0.0
 36
1.0
 17
0.0
 27
0.0
 37
0.0
 42
50.0
 43
-55.0
 44
-55.0
 45
1084.5
 50
0.0
 51
0.0
 72
   500
 90
        0
340
0
  1

281
     0
 71
     1
 74
     0
110
0.0
120
0.0
130
0.0
111
1.0
121
0.0
131
0.0
112
0.0
122
1.0
132
0.0
345
0
346
0
 79
     0
146
0.0
  0
POLYLINE
  5
45
100
AcDbEntity
  8
DRAWING
370
    15
390
0
  6
Continuous
 62
     7
100
AcDb2dPolyline
 66
     1
 10
0.0
 20
0.0
 30
0.0
 70
   129
  0
VERTEX
  5
46
100
AcDbEntity
  8
DRAWING
370
    15
390
0
  6
Continuous
 62
     7
100
AcDbVertex
100
AcDb2dVertex
 10
-30.161956
 20
92.616142
 30
0.0
  0
VERTEX
  5
47
100
AcDbEntity
  8
DRAWING
370
    15
390
0
  6
Continuous
 62
     7
100
AcDbVertex
100
AcDb2dVertex
 10
319.838053
 20
92.616142
 30
0.0
  0
VERTEX
  5
48
100
AcDbEntity
  8
DRAWING
370
    15
390
0
  6
Continuous
 62
     7
100
AcDbVertex
100
AcDb2dVertex
 10
319.838053
 20
242.616145
 30
0.0
  0
VERTEX
  5
49
100
AcDbEntity
  8
DRAWING
370
    15
390
0
  6
Continuous
 62
     7
100
AcDbVertex
100
AcDb2dVertex
 10
-30.161956
 20
242.616145
 30
0.0
  0
VERTEX
  5
4A
100
AcDbEntity
  8
DRAWING
370
    15
390
0
  6
Continuous
 62
     7
100
AcDbVertex
100
AcDb2dVertex
 10
-30.161956
 20
92.616142
 30
0.0
  0
SEQEND
  5
4B
100
AcDbEntity
  8
DRAWING
370
    15
390
0
  6
Continuous
 62
     7
  0
POLYLINE
  5
4C
100
AcDbEntity
  8
IRRIGATION_AREAS
370
    15
390
0
  6
Continuous
 62
     4
100
AcDb2dPolyline
 66
     1
 10
0.0
 20
0.0
 30
0.0
 70
   129
  0
VERTEX
  5
4D
100
AcDbEntity
  8
IRRIGATION_AREAS
370
    15
390
0
  6
Continuous
 62
     4
100
AcDbVertex
100
AcDb2dVertex
 10
-30.161956
 20
92.616142
 30
0.0
  0
VERTEX
  5
4E
100
AcDbEntity
  8
IRRIGATION_AREAS
370
    15
390
0
  6
Continuous
 62
     4
100
AcDbVertex
100
AcDb2dVertex
 10
319.838053
 20
92.616142
 30
0.0
  0
VERTEX
  5
4F
100
AcDbEntity
  8
IRRIGATION_AREAS
370
    15
390
0
  6
Continuous
 62
     4
100
AcDbVertex
100
AcDb2dVertex
 10
319.838053
 20
242.616145
 30
0.0
  0
VERTEX
  5
50
100
AcDbEntity
  8
IRRIGATION_AREAS
370
    15
390
0
  6
Continuous
 62
     4
100
AcDbVertex
100
AcDb2dVertex
 10
-30.161956
 20
242.616145
 30
0.0
  0
VERTEX
  5
51
100
AcDbEntity
  8
IRRIGATION_AREAS
370
    15
390
0
  6
Continuous
 62
     4
100
AcDbVertex
100
AcDb2dVertex
 10
-30.161956
 20
92.616142
 30
0.0
  0
SEQEND
  5
52
100
AcDbEntity
  8
IRRIGATION_AREAS
370
    15
390
0
  6
Continuous
 62
     4
  0
INSERT
  5
5D
100
AcDbEntity
  8
ZONE_JUNCTIONS
370
    15
390
0
  6
Continuous
 62
     7
100
AcDbBlockReference
  2
Junction
 10
-30.161957
 20
92.616139
 30
0.0
 41
0.019685
 42
0.019685
  0
INSERT
  5
5E
100
AcDbEntity
  8
ZONE_JUNCTIONS
370
    15
390
0
  6
Continuous
 62
     7
100
AcDbBlockReference
  2
Junction
 10
-30.161957
 20
242.616148
 30
0.0
 41
0.019685
 42
0.019685
  0
INSERT
  5
6A
100
AcDbEntity
  8
SPRAYLINE_OUTLETS
370
    15
390
0
  6
Continuous
 62
     7
100
AcDbBlockReference
  2
i__DBS_SYMBOL_1
 10
-30.161957
 20
98.616799
 30
0.0
 41
0.083333
 42
0.083333
  0
CIRCLE
  5
6B
100
AcDbEntity
  8
SL_WETTED_RADII
370
    15
390
0
  6
Continuous
 62
     7
100
AcDbCircle
 10
-30.161957
 20
98.616799
 30
0.0
 40
13.0378
  0
INSERT
  5
6C
100
AcDbEntity
  8
SPRAYLINE_OUTLETS
370
    15
390
0
  6
Continuous
 62
     7
100
AcDbBlockReference
  2
i__DBS_SYMBOL_1
 10
-30.161957
 20
114.616799
 30
0.0
 41
0.083333
 42
0.083333
  0
CIRCLE
  5
6D
100
AcDbEntity
  8
SL_WETTED_RADII
370
    15
390
0
  6
Continuous
 62
     7
100
AcDbCircle
 10
-30.161957
 20
114.616799
 30
0.0
 40
13.0378
  0
INSERT
  5
6E
100
AcDbEntity
  8
SPRAYLINE_OUTLETS
370
    15
390
0
  6
Continuous
 62
     7
100
AcDbBlockReference
  2
i__DBS_SYMBOL_1
 10
-30.161957
 20
130.6168
 30
0.0
 41
0.083333
 42
0.083333
  0
CIRCLE
  5
6F
100
AcDbEntity
  8
SL_WETTED_RADII
370
    15
390
0
  6
Continuous
 62
     7
100
AcDbCircle
 10
-30.161957
 20
130.6168
 30
0.0
 40
13.0378
  0
INSERT
  5
70
100
AcDbEntity
  8
SPRAYLINE_OUTLETS
370
    15
390
0
  6
Continuous
 62
     7
100
AcDbBlockReference
  2
i__DBS_SYMBOL_1
 10
-30.161957
 20
146.6168
 30
0.0
 41
0.083333
 42
0.083333
  0
CIRCLE
  5
71
100
AcDbEntity
  8
SL_WETTED_RADII
370
    15
390
0
  6
Continuous
 62
     7
100
AcDbCircle
 10
-30.161957
 20
146.6168
 30
0.0
 40
13.0378
  0
INSERT
  5
72
100
AcDbEntity
  8
SPRAYLINE_OUTLETS
370
    15
390
0
  6
Continuous
 62
     7
100
AcDbBlockReference
  2
i__DBS_SYMBOL_1
 10
-30.161957
 20
162.6168
 30
0.0
 41
0.083333
 42
0.083333
  0
CIRCLE
  5
73
100
AcDbEntity
  8
SL_WETTED_RADII
370
    15
390
0
  6
Continuous
 62
     7
100
AcDbCircle
 10
-30.161957
 20
162.6168
 30
0.0
 40
13.0378
  0
INSERT
  5
74
100
AcDbEntity
  8
SPRAYLINE_OUTLETS
370
    15
390
0
  6
Continuous
 62
     7
100
AcDbBlockReference
  2
i__DBS_SYMBOL_1
 10
-30.161957
 20
178.616801
 30
0.0
 41
0.083333
 42
0.083333
  0
CIRCLE
  5
75
100
AcDbEntity
  8
SL_WETTED_RADII
370
    15
390
0
  6
Continuous
 62
     7
100
AcDbCircle
 10
-30.161957
 20
178.616801
 30
0.0
 40
13.0378
  0
INSERT
  5
76
100
AcDbEntity
  8
SPRAYLINE_OUTLETS
370
    15
390
0
  6
Continuous
 62
     7
100
AcDbBlockReference
  2
i__DBS_SYMBOL_1
 10
-30.161957
 20
194.616801
 30
0.0
 41
0.083333
 42
0.083333
  0
CIRCLE
  5
77
100
AcDbEntity
  8
SL_WETTED_RADII
370
    15
390
0
  6
Continuous
 62
     7
100
AcDbCircle
 10
-30.161957
 20
194.616801
 30
0.0
 40
13.0378
  0
INSERT
  5
78
100
AcDbEntity
  8
SPRAYLINE_OUTLETS
370
    15
390
0
  6
Continuous
 62
     7
100
AcDbBlockReference
  2
i__DBS_SYMBOL_1
 10
-30.161957
 20
210.616802
 30
0.0
 41
0.083333
 42
0.083333
  0
CIRCLE
  5
79
100
AcDbEntity
  8
SL_WETTED_RADII
370
    15
390
0
  6
Continuous
 62
     7
100
AcDbCircle
 10
-30.161957
 20
210.616802
 30
0.0
 40
13.0378
  0
INSERT
  5
7A
100
AcDbEntity
  8
SPRAYLINE_OUTLETS
370
    15
390
0
  6
Continuous
 62
     7
100
AcDbBlockReference
  2
i__DBS_SYMBOL_1
 10
-30.161957
 20
226.616802
 30
0.0
 41
0.083333
 42
0.083333
  0
CIRCLE
  5
7B
100
AcDbEntity
  8
SL_WETTED_RADII
370
    15
390
0
  6
Continuous
 62
     7
100
AcDbCircle
 10
-30.161957
 20
226.616802
 30
0.0
 40
13.0378
  0
INSERT
  5
7C
100
AcDbEntity
  8
SPRAYLINE_OUTLETS
370
    15
390
0
  6
Continuous
 62
     7
100
AcDbBlockReference
  2
i__DBS_SYMBOL_1
 10
-30.161957
 20
242.616148
 30
0.0
 41
0.083333
 42
0.083333
  0
CIRCLE
  5
7D
100
AcDbEntity
  8
SL_WETTED_RADII
370
    15
390
0
  6
Continuous
 62
     7
100
AcDbCircle
 10
-30.161957
 20
242.616148
 30
0.0
 40
13.0378
  0
INSERT
  5
7E
100
AcDbEntity
  8
ZONE_JUNCTIONS
370
    15
390
0
  6
Continuous
 62
     7
100
AcDbBlockReference
  2
Junction
 10
-8.160644
 20
92.616139
 30
0.0
 41
0.019685
 42
0.019685
  0
INSERT
  5
7F
100
AcDbEntity
  8
ZONE_JUNCTIONS
370
    15
390
0
  6
Continuous
 62
     7
100
AcDbBlockReference
  2
Junction
 10
-8.160644
 20
242.616148
 30
0.0
 41
0.019685
 42
0.019685
  0
INSERT
  5
80
100
AcDbEntity
  8
SPRAYLINE_OUTLETS
370
    15
390
0
  6
Continuous
 62
     7
100
AcDbBlockReference
  2
i__DBS_SYMBOL_1
 10
-8.160644
 20
98.616799
 30
0.0
 41
0.083333
 42
0.083333
  0
CIRCLE
  5
81
100
AcDbEntity
  8
SL_WETTED_RADII
370
    15
390
0
  6
Continuous
 62
     7
100
AcDbCircle
 10
-8.160644
 20
98.616799
 30
0.0
 40
13.0378
  0
INSERT
  5
82
100
AcDbEntity
  8
SPRAYLINE_OUTLETS
370
    15
390
0
  6
Continuous
 62
     7
100
AcDbBlockReference
  2
i__DBS_SYMBOL_1
 10
-8.160644
 20
114.616799
 30
0.0
 41
0.083333
 42
0.083333
  0
CIRCLE
  5
83
100
AcDbEntity
  8
SL_WETTED_RADII
370
    15
390
0
  6
Continuous
 62
     7
100
AcDbCircle
 10
-8.160644
 20
114.616799
 30
0.0
 40
13.0378
  0
INSERT
  5
84
100
AcDbEntity
  8
SPRAYLINE_OUTLETS
370
    15
390
0
  6
Continuous
 62
     7
100
AcDbBlockReference
  2
i__DBS_SYMBOL_1
 10
-8.160644
 20
130.6168
 30
0.0
 41
0.083333
 42
0.083333
  0
CIRCLE
  5
85
100
AcDbEntity
  8
SL_WETTED_RADII
370
    15
390
0
  6
Continuous
 62
     7
100
AcDbCircle
 10
-8.160644
 20
130.6168
 30
0.0
 40
13.0378
  0
INSERT
  5
86
100
AcDbEntity
  8
SPRAYLINE_OUTLETS
370
    15
390
0
  6
Continuous
 62
     7
100
AcDbBlockReference
  2
i__DBS_SYMBOL_1
 10
-8.160644
 20
146.6168
 30
0.0
 41
0.083333
 42
0.083333
  0
CIRCLE
  5
87
100
AcDbEntity
  8
SL_WETTED_RADII
370
    15
390
0
  6
Continuous
 62
     7
100
AcDbCircle
 10
-8.160644
 20
146.6168
 30
0.0
 40
13.0378
  0
INSERT
  5
88
100
AcDbEntity
  8
SPRAYLINE_OUTLETS
370
    15
390
0
  6
Continuous
 62
     7
100
AcDbBlockReference
  2
i__DBS_SYMBOL_1
 10
-8.160644
 20
162.6168
 30
0.0
 41
0.083333
 42
0.083333
  0
CIRCLE
  5
89
100
AcDbEntity
  8
SL_WETTED_RADII
370
    15
390
0
  6
Continuous
 62
     7
100
AcDbCircle
 10
-8.160644
 20
162.6168
 30
0.0
 40
13.0378
  0
INSERT
  5
8A
100
AcDbEntity
  8
SPRAYLINE_OUTLETS
370
    15
390
0
  6
Continuous
 62
     7
100
AcDbBlockReference
  2
i__DBS_SYMBOL_1
 10
-8.160644
 20
178.616801
 30
0.0
 41
0.083333
 42
0.083333
  0
CIRCLE
  5
8B
100
AcDbEntity
  8
SL_WETTED_RADII
370
    15
390
0
  6
Continuous
 62
     7
100
AcDbCircle
 10
-8.160644
 20
178.616801
 30
0.0
 40
13.0378
  0
INSERT
  5
8C
100
AcDbEntity
  8
SPRAYLINE_OUTLETS
370
    15
390
0
  6
Continuous
 62
     7
100
AcDbBlockReference
  2
i__DBS_SYMBOL_1
 10
-8.160644
 20
194.616801
 30
0.0
 41
0.083333
 42
0.083333
  0
CIRCLE
  5
8D
100
AcDbEntity
  8
SL_WETTED_RADII
370
    15
390
0
  6
Continuous
 62
     7
100
AcDbCircle
 10
-8.160644
 20
194.616801
 30
0.0
 40
13.0378
  0
INSERT
  5
8E
100
AcDbEntity
  8
SPRAYLINE_OUTLETS
370
    15
390
0
  6
Continuous
 62
     7
100
AcDbBlockReference
  2
i__DBS_SYMBOL_1
 10
-8.160644
 20
210.616802
 30
0.0
 41
0.083333
 42
0.083333
  0
CIRCLE
  5
8F
100
AcDbEntity
  8
SL_WETTED_RADII
370
    15
390
0
  6
Continuous
 62
     7
100
AcDbCircle
 10
-8.160644
 20
210.616802
 30
0.0
 40
13.0378
  0
INSERT
  5
90
100
AcDbEntity
  8
SPRAYLINE_OUTLETS
370
    15
390
0
  6
Continuous
 62
     7
100
AcDbBlockReference
  2
i__DBS_SYMBOL_1
 10
-8.160644
 20
226.616802
 30
0.0
 41
0.083333
 42
0.083333
  0
CIRCLE
  5
91
100
AcDbEntity
  8
SL_WETTED_RADII
370
    15
390
0
  6
Continuous
 62
     7
100
AcDbCircle
 10
-8.160644
 20
226.616802
 30
0.0
 40
13.0378
  0
INSERT
  5
92
100
AcDbEntity
  8
SPRAYLINE_OUTLETS
370
    15
390
0
  6
Continuous
 62
     7
100
AcDbBlockReference
  2
i__DBS_SYMBOL_1
 10
-8.160644
 20
242.616148
 30
0.0
 41
0.083333
 42
0.083333
  0
CIRCLE
  5
93
100
AcDbEntity
  8
SL_WETTED_RADII
370
    15
390
0
  6
Continuous
 62
     7
100
AcDbCircle
 10
-8.160644
 20
242.616148
 30
0.0
 40
13.0378
  0
INSERT
  5
94
100
AcDbEntity
  8
ZONE_JUNCTIONS
370
    15
390
0
  6
Continuous
 62
     7
100
AcDbBlockReference
  2
Junction
 10
13.840668
 20
92.616139
 30
0.0
 41
0.019685
 42
0.019685
  0
INSERT
  5
95
100
AcDbEntity
  8
ZONE_JUNCTIONS
370
    15
390
0
  6
Continuous
 62
     7
100
AcDbBlockReference
  2
Junction
 10
13.840668
 20
242.616148
 30
0.0
 41
0.019685
 42
0.019685
  0
INSERT
  5
96
100
AcDbEntity
  8
SPRAYLINE_OUTLETS
370
    15
390
0
  6
Continuous
 62
     7
100
AcDbBlockReference
  2
i__DBS_SYMBOL_1
 10
13.840668
 20
98.616799
 30
0.0
 41
0.083333
 42
0.083333
  0
CIRCLE
  5
97
100
AcDbEntity
  8
SL_WETTED_RADII
370
    15
390
0
  6
Continuous
 62
     7
100
AcDbCircle
 10
13.840668
 20
98.616799
 30
0.0
 40
13.0378
  0
INSERT
  5
98
100
AcDbEntity
  8
SPRAYLINE_OUTLETS
370
    15
390
0
  6
Continuous
 62
     7
100
AcDbBlockReference
  2
i__DBS_SYMBOL_1
 10
13.840668
 20
114.616799
 30
0.0
 41
0.083333
 42
0.083333
  0
CIRCLE
  5
99
100
AcDbEntity
  8
SL_WETTED_RADII
370
    15
390
0
  6
Continuous
 62
     7
100
AcDbCircle
 10
13.840668
 20
114.616799
 30
0.0
 40
13.0378
  0
INSERT
  5
9A
100
AcDbEntity
  8
SPRAYLINE_OUTLETS
370
    15
390
0
  6
Continuous
 62
     7
100
AcDbBlockReference
  2
i__DBS_SYMBOL_1
 10
13.840668
 20
130.6168
 30
0.0
 41
0.083333
 42
0.083333
  0
CIRCLE
  5
9B
100
AcDbEntity
  8
SL_WETTED_RADII
370
    15
390
0
  6
Continuous
 62
     7
100
AcDbCircle
 10
13.840668
 20
130.6168
 30
0.0
 40
13.0378
  0
INSERT
  5
9C
100
AcDbEntity
  8
SPRAYLINE_OUTLETS
370
    15
390
0
  6
Continuous
 62
     7
100
AcDbBlockReference
  2
i__DBS_SYMBOL_1
 10
13.840668
 20
146.6168
 30
0.0
 41
0.083333
 42
0.083333
  0
CIRCLE
  5
9D
100
AcDbEntity
  8
SL_WETTED_RADII
370
    15
390
0
  6
Continuous
 62
     7
100
AcDbCircle
 10
13.840668
 20
146.6168
 30
0.0
 40
13.0378
  0
INSERT
  5
9E
100
AcDbEntity
  8
SPRAYLINE_OUTLETS
370
    15
390
0
  6
Continuous
 62
     7
100
AcDbBlockReference
  2
i__DBS_SYMBOL_1
 10
13.840668
 20
162.6168
 30
0.0
 41
0.083333
 42
0.083333
  0
CIRCLE
  5
9F
100
AcDbEntity
  8
SL_WETTED_RADII
370
    15
390
0
  6
Continuous
 62
     7
100
AcDbCircle
 10
13.840668
 20
162.6168
 30
0.0
 40
13.0378
  0
INSERT
  5
A0
100
AcDbEntity
  8
SPRAYLINE_OUTLETS
370
    15
390
0
  6
Continuous
 62
     7
100
AcDbBlockReference
  2
i__DBS_SYMBOL_1
 10
13.840668
 20
178.616801
 30
0.0
 41
0.083333
 42
0.083333
  0
CIRCLE
  5
A1
100
AcDbEntity
  8
SL_WETTED_RADII
370
    15
390
0
  6
Continuous
 62
     7
100
AcDbCircle
 10
13.840668
 20
178.616801
 30
0.0
 40
13.0378
  0
INSERT
  5
A2
100
AcDbEntity
  8
SPRAYLINE_OUTLETS
370
    15
390
0
  6
Continuous
 62
     7
100
AcDbBlockReference
  2
i__DBS_SYMBOL_1
 10
13.840668
 20
194.616801
 30
0.0
 41
0.083333
 42
0.083333
  0
CIRCLE
  5
A3
100
AcDbEntity
  8
SL_WETTED_RADII
370
    15
390
0
  6
Continuous
 62
     7
100
AcDbCircle
 10
13.840668
 20
194.616801
 30
0.0
 40
13.0378
  0
INSERT
  5
A4
100
AcDbEntity
  8
SPRAYLINE_OUTLETS
370
    15
390
0
  6
Continuous
 62
     7
100
AcDbBlockReference
  2
i__DBS_SYMBOL_1
 10
13.840668
 20
210.616802
 30
0.0
 41
0.083333
 42
0.083333
  0
CIRCLE
  5
A5
100
AcDbEntity
  8
SL_WETTED_RADII
370
    15
390
0
  6
Continuous
 62
     7
100
AcDbCircle
 10
13.840668
 20
210.616802
 30
0.0
 40
13.0378
  0
INSERT
  5
A6
100
AcDbEntity
  8
SPRAYLINE_OUTLETS
370
    15
390
0
  6
Continuous
 62
     7
100
AcDbBlockReference
  2
i__DBS_SYMBOL_1
 10
13.840668
 20
226.616802
 30
0.0
 41
0.083333
 42
0.083333
  0
CIRCLE
  5
A7
100
AcDbEntity
  8
SL_WETTED_RADII
370
    15
390
0
  6
Continuous
 62
     7
100
AcDbCircle
 10
13.840668
 20
226.616802
 30
0.0
 40
13.0378
  0
INSERT
  5
A8
100
AcDbEntity
  8
SPRAYLINE_OUTLETS
370
    15
390
0
  6
Continuous
 62
     7
100
AcDbBlockReference
  2
i__DBS_SYMBOL_1
 10
13.840668
 20
242.616148
 30
0.0
 41
0.083333
 42
0.083333
  0
CIRCLE
  5
A9
100
AcDbEntity
  8
SL_WETTED_RADII
370
    15
390
0
  6
Continuous
 62
     7
100
AcDbCircle
 10
13.840668
 20
242.616148
 30
0.0
 40
13.0378
  0
INSERT
  5
AA
100
AcDbEntity
  8
ZONE_JUNCTIONS
370
    15
390
0
  6
Continuous
 62
     7
100
AcDbBlockReference
  2
Junction
 10
35.841981
 20
92.616139
 30
0.0
 41
0.019685
 42
0.019685
  0
INSERT
  5
AB
100
AcDbEntity
  8
ZONE_JUNCTIONS
370
    15
390
0
  6
Continuous
 62
     7
100
AcDbBlockReference
  2
Junction
 10
35.841981
 20
242.616148
 30
0.0
 41
0.019685
 42
0.019685
  0
INSERT
  5
AC
100
AcDbEntity
  8
SPRAYLINE_OUTLETS
370
    15
390
0
  6
Continuous
 62
     7
100
AcDbBlockReference
  2
i__DBS_SYMBOL_1
 10
35.841981
 20
98.616799
 30
0.0
 41
0.083333
 42
0.083333
  0
CIRCLE
  5
AD
100
AcDbEntity
  8
SL_WETTED_RADII
370
    15
390
0
  6
Continuous
 62
     7
100
AcDbCircle
 10
35.841981
 20
98.616799
 30
0.0
 40
13.0378
  0
INSERT
  5
AE
100
AcDbEntity
  8
SPRAYLINE_OUTLETS
370
    15
390
0
  6
Continuous
 62
     7
100
AcDbBlockReference
  2
i__DBS_SYMBOL_1
 10
35.841981
 20
114.616799
 30
0.0
 41
0.083333
 42
0.083333
  0
CIRCLE
  5
AF
100
AcDbEntity
  8
SL_WETTED_RADII
370
    15
390
0
  6
Continuous
 62
     7
100
AcDbCircle
 10
35.841981
 20
114.616799
 30
0.0
 40
13.0378
  0
INSERT
  5
B0
100
AcDbEntity
  8
SPRAYLINE_OUTLETS
370
    15
390
0
  6
Continuous
 62
     7
100
AcDbBlockReference
  2
i__DBS_SYMBOL_1
 10
35.841981
 20
130.6168
 30
0.0
 41
0.083333
 42
0.083333
  0
CIRCLE
  5
B1
100
AcDbEntity
  8
SL_WETTED_RADII
370
    15
390
0
  6
Continuous
 62
     7
100
AcDbCircle
 10
35.841981
 20
130.6168
 30
0.0
 40
13.0378
  0
INSERT
  5
B2
100
AcDbEntity
  8
SPRAYLINE_OUTLETS
370
    15
390
0
  6
Continuous
 62
     7
100
AcDbBlockReference
  2
i__DBS_SYMBOL_1
 10
35.841981
 20
146.6168
 30
0.0
 41
0.083333
 42
0.083333
  0
CIRCLE
  5
B3
100
AcDbEntity
  8
SL_WETTED_RADII
370
    15
390
0
  6
Continuous
 62
     7
100
AcDbCircle
 10
35.841981
 20
146.6168
 30
0.0
 40
13.0378
  0
INSERT
  5
B4
100
AcDbEntity
  8
SPRAYLINE_OUTLETS
370
    15
390
0
  6
Continuous
 62
     7
100
AcDbBlockReference
  2
i__DBS_SYMBOL_1
 10
35.841981
 20
162.6168
 30
0.0
 41
0.083333
 42
0.083333
  0
CIRCLE
  5
B5
100
AcDbEntity
  8
SL_WETTED_RADII
370
    15
390
0
  6
Continuous
 62
     7
100
AcDbCircle
 10
35.841981
 20
162.6168
 30
0.0
 40
13.0378
  0
INSERT
  5
B6
100
AcDbEntity
  8
SPRAYLINE_OUTLETS
370
    15
390
0
  6
Continuous
 62
     7
100
AcDbBlockReference
  2
i__DBS_SYMBOL_1
 10
35.841981
 20
178.616801
 30
0.0
 41
0.083333
 42
0.083333
  0
CIRCLE
  5
B7
100
AcDbEntity
  8
SL_WETTED_RADII
370
    15
390
0
  6
Continuous
 62
     7
100
AcDbCircle
 10
35.841981
 20
178.616801
 30
0.0
 40
13.0378
  0
INSERT
  5
B8
100
AcDbEntity
  8
SPRAYLINE_OUTLETS
370
    15
390
0
  6
Continuous
 62
     7
100
AcDbBlockReference
  2
i__DBS_SYMBOL_1
 10
35.841981
 20
194.616801
 30
0.0
 41
0.083333
 42
0.083333
  0
CIRCLE
  5
B9
100
AcDbEntity
  8
SL_WETTED_RADII
370
    15
390
0
  6
Continuous
 62
     7
100
AcDbCircle
 10
35.841981
 20
194.616801
 30
0.0
 40
13.0378
  0
INSERT
  5
BA
100
AcDbEntity
  8
SPRAYLINE_OUTLETS
370
    15
390
0
  6
Continuous
 62
     7
100
AcDbBlockReference
  2
i__DBS_SYMBOL_1
 10
35.841981
 20
210.616802
 30
0.0
 41
0.083333
 42
0.083333
  0
CIRCLE
  5
BB
100
AcDbEntity
  8
SL_WETTED_RADII
370
    15
390
0
  6
Continuous
 62
     7
100
AcDbCircle
 10
35.841981
 20
210.616802
 30
0.0
 40
13.0378
  0
INSERT
  5
BC
100
AcDbEntity
  8
SPRAYLINE_OUTLETS
370
    15
390
0
  6
Continuous
 62
     7
100
AcDbBlockReference
  2
i__DBS_SYMBOL_1
 10
35.841981
 20
226.616802
 30
0.0
 41
0.083333
 42
0.083333
  0
CIRCLE
  5
BD
100
AcDbEntity
  8
SL_WETTED_RADII
370
    15
390
0
  6
Continuous
 62
     7
100
AcDbCircle
 10
35.841981
 20
226.616802
 30
0.0
 40
13.0378
  0
INSERT
  5
BE
100
AcDbEntity
  8
SPRAYLINE_OUTLETS
370
    15
390
0
  6
Continuous
 62
     7
100
AcDbBlockReference
  2
i__DBS_SYMBOL_1
 10
35.841981
 20
242.616148
 30
0.0
 41
0.083333
 42
0.083333
  0
CIRCLE
  5
BF
100
AcDbEntity
  8
SL_WETTED_RADII
370
    15
390
0
  6
Continuous
 62
     7
100
AcDbCircle
 10
35.841981
 20
242.616148
 30
0.0
 40
13.0378
  0
INSERT
  5
C0
100
AcDbEntity
  8
ZONE_JUNCTIONS
370
    15
390
0
  6
Continuous
 62
     7
100
AcDbBlockReference
  2
Junction
 10
57.843294
 20
92.616139
 30
0.0
 41
0.019685
 42
0.019685
  0
INSERT
  5
C1
100
AcDbEntity
  8
ZONE_JUNCTIONS
370
    15
390
0
  6
Continuous
 62
     7
100
AcDbBlockReference
  2
Junction
 10
57.843294
 20
242.616148
 30
0.0
 41
0.019685
 42
0.019685
  0
INSERT
  5
C2
100
AcDbEntity
  8
SPRAYLINE_OUTLETS
370
    15
390
0
  6
Continuous
 62
     7
100
AcDbBlockReference
  2
i__DBS_SYMBOL_1
 10
57.843294
 20
98.616799
 30
0.0
 41
0.083333
 42
0.083333
  0
CIRCLE
  5
C3
100
AcDbEntity
  8
SL_WETTED_RADII
370
    15
390
0
  6
Continuous
 62
     7
100
AcDbCircle
 10
57.843294
 20
98.616799
 30
0.0
 40
13.0378
  0
INSERT
  5
C4
100
AcDbEntity
  8
SPRAYLINE_OUTLETS
370
    15
390
0
  6
Continuous
 62
     7
100
AcDbBlockReference
  2
i__DBS_SYMBOL_1
 10
57.843294
 20
114.616799
 30
0.0
 41
0.083333
 42
0.083333
  0
CIRCLE
  5
C5
100
AcDbEntity
  8
SL_WETTED_RADII
370
    15
390
0
  6
Continuous
 62
     7
100
AcDbCircle
 10
57.843294
 20
114.616799
 30
0.0
 40
13.0378
  0
INSERT
  5
C6
100
AcDbEntity
  8
SPRAYLINE_OUTLETS
370
    15
390
0
  6
Continuous
 62
     7
100
AcDbBlockReference
  2
i__DBS_SYMBOL_1
 10
57.843294
 20
130.6168
 30
0.0
 41
0.083333
 42
0.083333
  0
CIRCLE
  5
C7
100
AcDbEntity
  8
SL_WETTED_RADII
370
    15
390
0
  6
Continuous
 62
     7
100
AcDbCircle
 10
57.843294
 20
130.6168
 30
0.0
 40
13.0378
  0
INSERT
  5
C8
100
AcDbEntity
  8
SPRAYLINE_OUTLETS
370
    15
390
0
  6
Continuous
 62
     7
100
AcDbBlockReference
  2
i__DBS_SYMBOL_1
 10
57.843294
 20
146.6168
 30
0.0
 41
0.083333
 42
0.083333
  0
CIRCLE
  5
C9
100
AcDbEntity
  8
SL_WETTED_RADII
370
    15
390
0
  6
Continuous
 62
     7
100
AcDbCircle
 10
57.843294
 20
146.6168
 30
0.0
 40
13.0378
  0
INSERT
  5
CA
100
AcDbEntity
  8
SPRAYLINE_OUTLETS
370
    15
390
0
  6
Continuous
 62
     7
100
AcDbBlockReference
  2
i__DBS_SYMBOL_1
 10
57.843294
 20
162.6168
 30
0.0
 41
0.083333
 42
0.083333
  0
CIRCLE
  5
CB
100
AcDbEntity
  8
SL_WETTED_RADII
370
    15
390
0
  6
Continuous
 62
     7
100
AcDbCircle
 10
57.843294
 20
162.6168
 30
0.0
 40
13.0378
  0
INSERT
  5
CC
100
AcDbEntity
  8
SPRAYLINE_OUTLETS
370
    15
390
0
  6
Continuous
 62
     7
100
AcDbBlockReference
  2
i__DBS_SYMBOL_1
 10
57.843294
 20
178.616801
 30
0.0
 41
0.083333
 42
0.083333
  0
CIRCLE
  5
CD
100
AcDbEntity
  8
SL_WETTED_RADII
370
    15
390
0
  6
Continuous
 62
     7
100
AcDbCircle
 10
57.843294
 20
178.616801
 30
0.0
 40
13.0378
  0
INSERT
  5
CE
100
AcDbEntity
  8
SPRAYLINE_OUTLETS
370
    15
390
0
  6
Continuous
 62
     7
100
AcDbBlockReference
  2
i__DBS_SYMBOL_1
 10
57.843294
 20
194.616801
 30
0.0
 41
0.083333
 42
0.083333
  0
CIRCLE
  5
CF
100
AcDbEntity
  8
SL_WETTED_RADII
370
    15
390
0
  6
Continuous
 62
     7
100
AcDbCircle
 10
57.843294
 20
194.616801
 30
0.0
 40
13.0378
  0
INSERT
  5
D0
100
AcDbEntity
  8
SPRAYLINE_OUTLETS
370
    15
390
0
  6
Continuous
 62
     7
100
AcDbBlockReference
  2
i__DBS_SYMBOL_1
 10
57.843294
 20
210.616802
 30
0.0
 41
0.083333
 42
0.083333
  0
CIRCLE
  5
D1
100
AcDbEntity
  8
SL_WETTED_RADII
370
    15
390
0
  6
Continuous
 62
     7
100
AcDbCircle
 10
57.843294
 20
210.616802
 30
0.0
 40
13.0378
  0
INSERT
  5
D2
100
AcDbEntity
  8
SPRAYLINE_OUTLETS
370
    15
390
0
  6
Continuous
 62
     7
100
AcDbBlockReference
  2
i__DBS_SYMBOL_1
 10
57.843294
 20
226.616802
 30
0.0
 41
0.083333
 42
0.083333
  0
CIRCLE
  5
D3
100
AcDbEntity
  8
SL_WETTED_RADII
370
    15
390
0
  6
Continuous
 62
     7
100
AcDbCircle
 10
57.843294
 20
226.616802
 30
0.0
 40
13.0378
  0
INSERT
  5
D4
100
AcDbEntity
  8
SPRAYLINE_OUTLETS
370
    15
390
0
  6
Continuous
 62
     7
100
AcDbBlockReference
  2
i__DBS_SYMBOL_1
 10
57.843294
 20
242.616148
 30
0.0
 41
0.083333
 42
0.083333
  0
CIRCLE
  5
D5
100
AcDbEntity
  8
SL_WETTED_RADII
370
    15
390
0
  6
Continuous
 62
     7
100
AcDbCircle
 10
57.843294
 20
242.616148
 30
0.0
 40
13.0378
  0
INSERT
  5
D6
100
AcDbEntity
  8
ZONE_JUNCTIONS
370
    15
390
0
  6
Continuous
 62
     7
100
AcDbBlockReference
  2
Junction
 10
79.844606
 20
92.616139
 30
0.0
 41
0.019685
 42
0.019685
  0
INSERT
  5
D7
100
AcDbEntity
  8
ZONE_JUNCTIONS
370
    15
390
0
  6
Continuous
 62
     7
100
AcDbBlockReference
  2
Junction
 10
79.844606
 20
242.616148
 30
0.0
 41
0.019685
 42
0.019685
  0
INSERT
  5
D8
100
AcDbEntity
  8
SPRAYLINE_OUTLETS
370
    15
390
0
  6
Continuous
 62
     7
100
AcDbBlockReference
  2
i__DBS_SYMBOL_1
 10
79.844606
 20
98.616799
 30
0.0
 41
0.083333
 42
0.083333
  0
CIRCLE
  5
D9
100
AcDbEntity
  8
SL_WETTED_RADII
370
    15
390
0
  6
Continuous
 62
     7
100
AcDbCircle
 10
79.844606
 20
98.616799
 30
0.0
 40
13.0378
  0
INSERT
  5
DA
100
AcDbEntity
  8
SPRAYLINE_OUTLETS
370
    15
390
0
  6
Continuous
 62
     7
100
AcDbBlockReference
  2
i__DBS_SYMBOL_1
 10
79.844606
 20
114.616799
 30
0.0
 41
0.083333
 42
0.083333
  0
CIRCLE
  5
DB
100
AcDbEntity
  8
SL_WETTED_RADII
370
    15
390
0
  6
Continuous
 62
     7
100
AcDbCircle
 10
79.844606
 20
114.616799
 30
0.0
 40
13.0378
  0
INSERT
  5
DC
100
AcDbEntity
  8
SPRAYLINE_OUTLETS
370
    15
390
0
  6
Continuous
 62
     7
100
AcDbBlockReference
  2
i__DBS_SYMBOL_1
 10
79.844606
 20
130.6168
 30
0.0
 41
0.083333
 42
0.083333
  0
CIRCLE
  5
DD
100
AcDbEntity
  8
SL_WETTED_RADII
370
    15
390
0
  6
Continuous
 62
     7
100
AcDbCircle
 10
79.844606
 20
130.6168
 30
0.0
 40
13.0378
  0
INSERT
  5
DE
100
AcDbEntity
  8
SPRAYLINE_OUTLETS
370
    15
390
0
  6
Continuous
 62
     7
100
AcDbBlockReference
  2
i__DBS_SYMBOL_1
 10
79.844606
 20
146.6168
 30
0.0
 41
0.083333
 42
0.083333
  0
CIRCLE
  5
DF
100
AcDbEntity
  8
SL_WETTED_RADII
370
    15
390
0
  6
Continuous
 62
     7
100
AcDbCircle
 10
79.844606
 20
146.6168
 30
0.0
 40
13.0378
  0
INSERT
  5
E0
100
AcDbEntity
  8
SPRAYLINE_OUTLETS
370
    15
390
0
  6
Continuous
 62
     7
100
AcDbBlockReference
  2
i__DBS_SYMBOL_1
 10
79.844606
 20
162.6168
 30
0.0
 41
0.083333
 42
0.083333
  0
CIRCLE
  5
E1
100
AcDbEntity
  8
SL_WETTED_RADII
370
    15
390
0
  6
Continuous
 62
     7
100
AcDbCircle
 10
79.844606
 20
162.6168
 30
0.0
 40
13.0378
  0
INSERT
  5
E2
100
AcDbEntity
  8
SPRAYLINE_OUTLETS
370
    15
390
0
  6
Continuous
 62
     7
100
AcDbBlockReference
  2
i__DBS_SYMBOL_1
 10
79.844606
 20
178.616801
 30
0.0
 41
0.083333
 42
0.083333
  0
CIRCLE
  5
E3
100
AcDbEntity
  8
SL_WETTED_RADII
370
    15
390
0
  6
Continuous
 62
     7
100
AcDbCircle
 10
79.844606
 20
178.616801
 30
0.0
 40
13.0378
  0
INSERT
  5
E4
100
AcDbEntity
  8
SPRAYLINE_OUTLETS
370
    15
390
0
  6
Continuous
 62
     7
100
AcDbBlockReference
  2
i__DBS_SYMBOL_1
 10
79.844606
 20
194.616801
 30
0.0
 41
0.083333
 42
0.083333
  0
CIRCLE
  5
E5
100
AcDbEntity
  8
SL_WETTED_RADII
370
    15
390
0
  6
Continuous
 62
     7
100
AcDbCircle
 10
79.844606
 20
194.616801
 30
0.0
 40
13.0378
  0
INSERT
  5
E6
100
AcDbEntity
  8
SPRAYLINE_OUTLETS
370
    15
390
0
  6
Continuous
 62
     7
100
AcDbBlockReference
  2
i__DBS_SYMBOL_1
 10
79.844606
 20
210.616802
 30
0.0
 41
0.083333
 42
0.083333
  0
CIRCLE
  5
E7
100
AcDbEntity
  8
SL_WETTED_RADII
370
    15
390
0
  6
Continuous
 62
     7
100
AcDbCircle
 10
79.844606
 20
210.616802
 30
0.0
 40
13.0378
  0
INSERT
  5
E8
100
AcDbEntity
  8
SPRAYLINE_OUTLETS
370
    15
390
0
  6
Continuous
 62
     7
100
AcDbBlockReference
  2
i__DBS_SYMBOL_1
 10
79.844606
 20
226.616802
 30
0.0
 41
0.083333
 42
0.083333
  0
CIRCLE
  5
E9
100
AcDbEntity
  8
SL_WETTED_RADII
370
    15
390
0
  6
Continuous
 62
     7
100
AcDbCircle
 10
79.844606
 20
226.616802
 30
0.0
 40
13.0378
  0
INSERT
  5
EA
100
AcDbEntity
  8
SPRAYLINE_OUTLETS
370
    15
390
0
  6
Continuous
 62
     7
100
AcDbBlockReference
  2
i__DBS_SYMBOL_1
 10
79.844606
 20
242.616148
 30
0.0
 41
0.083333
 42
0.083333
  0
CIRCLE
  5
EB
100
AcDbEntity
  8
SL_WETTED_RADII
370
    15
390
0
  6
Continuous
 62
     7
100
AcDbCircle
 10
79.844606
 20
242.616148
 30
0.0
 40
13.0378
  0
INSERT
  5
EC
100
AcDbEntity
  8
ZONE_JUNCTIONS
370
    15
390
0
  6
Continuous
 62
     7
100
AcDbBlockReference
  2
Junction
 10
101.845919
 20
92.616139
 30
0.0
 41
0.019685
 42
0.019685
  0
INSERT
  5
ED
100
AcDbEntity
  8
ZONE_JUNCTIONS
370
    15
390
0
  6
Continuous
 62
     7
100
AcDbBlockReference
  2
Junction
 10
101.845919
 20
242.616148
 30
0.0
 41
0.019685
 42
0.019685
  0
INSERT
  5
EE
100
AcDbEntity
  8
SPRAYLINE_OUTLETS
370
    15
390
0
  6
Continuous
 62
     7
100
AcDbBlockReference
  2
i__DBS_SYMBOL_1
 10
101.845919
 20
98.616799
 30
0.0
 41
0.083333
 42
0.083333
  0
CIRCLE
  5
EF
100
AcDbEntity
  8
SL_WETTED_RADII
370
    15
390
0
  6
Continuous
 62
     7
100
AcDbCircle
 10
101.845919
 20
98.616799
 30
0.0
 40
13.0378
  0
INSERT
  5
F0
100
AcDbEntity
  8
SPRAYLINE_OUTLETS
370
    15
390
0
  6
Continuous
 62
     7
100
AcDbBlockReference
  2
i__DBS_SYMBOL_1
 10
101.845919
 20
114.616799
 30
0.0
 41
0.083333
 42
0.083333
  0
CIRCLE
  5
F1
100
AcDbEntity
  8
SL_WETTED_RADII
370
    15
390
0
  6
Continuous
 62
     7
100
AcDbCircle
 10
101.845919
 20
114.616799
 30
0.0
 40
13.0378
  0
INSERT
  5
F2
100
AcDbEntity
  8
SPRAYLINE_OUTLETS
370
    15
390
0
  6
Continuous
 62
     7
100
AcDbBlockReference
  2
i__DBS_SYMBOL_1
 10
101.845919
 20
130.6168
 30
0.0
 41
0.083333
 42
0.083333
  0
CIRCLE
  5
F3
100
AcDbEntity
  8
SL_WETTED_RADII
370
    15
390
0
  6
Continuous
 62
     7
100
AcDbCircle
 10
101.845919
 20
130.6168
 30
0.0
 40
13.0378
  0
INSERT
  5
F4
100
AcDbEntity
  8
SPRAYLINE_OUTLETS
370
    15
390
0
  6
Continuous
 62
     7
100
AcDbBlockReference
  2
i__DBS_SYMBOL_1
 10
101.845919
 20
146.6168
 30
0.0
 41
0.083333
 42
0.083333
  0
CIRCLE
  5
F5
100
AcDbEntity
  8
SL_WETTED_RADII
370
    15
390
0
  6
Continuous
 62
     7
100
AcDbCircle
 10
101.845919
 20
146.6168
 30
0.0
 40
13.0378
  0
INSERT
  5
F6
100
AcDbEntity
  8
SPRAYLINE_OUTLETS
370
    15
390
0
  6
Continuous
 62
     7
100
AcDbBlockReference
  2
i__DBS_SYMBOL_1
 10
101.845919
 20
162.6168
 30
0.0
 41
0.083333
 42
0.083333
  0
CIRCLE
  5
F7
100
AcDbEntity
  8
SL_WETTED_RADII
370
    15
390
0
  6
Continuous
 62
     7
100
AcDbCircle
 10
101.845919
 20
162.6168
 30
0.0
 40
13.0378
  0
INSERT
  5
F8
100
AcDbEntity
  8
SPRAYLINE_OUTLETS
370
    15
390
0
  6
Continuous
 62
     7
100
AcDbBlockReference
  2
i__DBS_SYMBOL_1
 10
101.845919
 20
178.616801
 30
0.0
 41
0.083333
 42
0.083333
  0
CIRCLE
  5
F9
100
AcDbEntity
  8
SL_WETTED_RADII
370
    15
390
0
  6
Continuous
 62
     7
100
AcDbCircle
 10
101.845919
 20
178.616801
 30
0.0
 40
13.0378
  0
INSERT
  5
FA
100
AcDbEntity
  8
SPRAYLINE_OUTLETS
370
    15
390
0
  6
Continuous
 62
     7
100
AcDbBlockReference
  2
i__DBS_SYMBOL_1
 10
101.845919
 20
194.616801
 30
0.0
 41
0.083333
 42
0.083333
  0
CIRCLE
  5
FB
100
AcDbEntity
  8
SL_WETTED_RADII
370
    15
390
0
  6
Continuous
 62
     7
100
AcDbCircle
 10
101.845919
 20
194.616801
 30
0.0
 40
13.0378
  0
INSERT
  5
FC
100
AcDbEntity
  8
SPRAYLINE_OUTLETS
370
    15
390
0
  6
Continuous
 62
     7
100
AcDbBlockReference
  2
i__DBS_SYMBOL_1
 10
101.845919
 20
210.616802
 30
0.0
 41
0.083333
 42
0.083333
  0
CIRCLE
  5
FD
100
AcDbEntity
  8
SL_WETTED_RADII
370
    15
390
0
  6
Continuous
 62
     7
100
AcDbCircle
 10
101.845919
 20
210.616802
 30
0.0
 40
13.0378
  0
INSERT
  5
FE
100
AcDbEntity
  8
SPRAYLINE_OUTLETS
370
    15
390
0
  6
Continuous
 62
     7
100
AcDbBlockReference
  2
i__DBS_SYMBOL_1
 10
101.845919
 20
226.616802
 30
0.0
 41
0.083333
 42
0.083333
  0
CIRCLE
  5
FF
100
AcDbEntity
  8
SL_WETTED_RADII
370
    15
390
0
  6
Continuous
 62
     7
100
AcDbCircle
 10
101.845919
 20
226.616802
 30
0.0
 40
13.0378
  0
INSERT
  5
100
100
AcDbEntity
  8
SPRAYLINE_OUTLETS
370
    15
390
0
  6
Continuous
 62
     7
100
AcDbBlockReference
  2
i__DBS_SYMBOL_1
 10
101.845919
 20
242.616148
 30
0.0
 41
0.083333
 42
0.083333
  0
CIRCLE
  5
101
100
AcDbEntity
  8
SL_WETTED_RADII
370
    15
390
0
  6
Continuous
 62
     7
100
AcDbCircle
 10
101.845919
 20
242.616148
 30
0.0
 40
13.0378
  0
INSERT
  5
102
100
AcDbEntity
  8
ZONE_JUNCTIONS
370
    15
390
0
  6
Continuous
 62
     7
100
AcDbBlockReference
  2
Junction
 10
123.847231
 20
92.616139
 30
0.0
 41
0.019685
 42
0.019685
  0
INSERT
  5
103
100
AcDbEntity
  8
ZONE_JUNCTIONS
370
    15
390
0
  6
Continuous
 62
     7
100
AcDbBlockReference
  2
Junction
 10
123.847231
 20
242.616148
 30
0.0
 41
0.019685
 42
0.019685
  0
INSERT
  5
104
100
AcDbEntity
  8
SPRAYLINE_OUTLETS
370
    15
390
0
  6
Continuous
 62
     7
100
AcDbBlockReference
  2
i__DBS_SYMBOL_1
 10
123.847231
 20
98.616799
 30
0.0
 41
0.083333
 42
0.083333
  0
CIRCLE
  5
105
100
AcDbEntity
  8
SL_WETTED_RADII
370
    15
390
0
  6
Continuous
 62
     7
100
AcDbCircle
 10
123.847231
 20
98.616799
 30
0.0
 40
13.0378
  0
INSERT
  5
106
100
AcDbEntity
  8
SPRAYLINE_OUTLETS
370
    15
390
0
  6
Continuous
 62
     7
100
AcDbBlockReference
  2
i__DBS_SYMBOL_1
 10
123.847231
 20
114.616799
 30
0.0
 41
0.083333
 42
0.083333
  0
CIRCLE
  5
107
100
AcDbEntity
  8
SL_WETTED_RADII
370
    15
390
0
  6
Continuous
 62
     7
100
AcDbCircle
 10
123.847231
 20
114.616799
 30
0.0
 40
13.0378
  0
INSERT
  5
108
100
AcDbEntity
  8
SPRAYLINE_OUTLETS
370
    15
390
0
  6
Continuous
 62
     7
100
AcDbBlockReference
  2
i__DBS_SYMBOL_1
 10
123.847231
 20
130.6168
 30
0.0
 41
0.083333
 42
0.083333
  0
CIRCLE
  5
109
100
AcDbEntity
  8
SL_WETTED_RADII
370
    15
390
0
  6
Continuous
 62
     7
100
AcDbCircle
 10
123.847231
 20
130.6168
 30
0.0
 40
13.0378
  0
INSERT
  5
10A
100
AcDbEntity
  8
SPRAYLINE_OUTLETS
370
    15
390
0
  6
Continuous
 62
     7
100
AcDbBlockReference
  2
i__DBS_SYMBOL_1
 10
123.847231
 20
146.6168
 30
0.0
 41
0.083333
 42
0.083333
  0
CIRCLE
  5
10B
100
AcDbEntity
  8
SL_WETTED_RADII
370
    15
390
0
  6
Continuous
 62
     7
100
AcDbCircle
 10
123.847231
 20
146.6168
 30
0.0
 40
13.0378
  0
INSERT
  5
10C
100
AcDbEntity
  8
SPRAYLINE_OUTLETS
370
    15
390
0
  6
Continuous
 62
     7
100
AcDbBlockReference
  2
i__DBS_SYMBOL_1
 10
123.847231
 20
162.6168
 30
0.0
 41
0.083333
 42
0.083333
  0
CIRCLE
  5
10D
100
AcDbEntity
  8
SL_WETTED_RADII
370
    15
390
0
  6
Continuous
 62
     7
100
AcDbCircle
 10
123.847231
 20
162.6168
 30
0.0
 40
13.0378
  0
INSERT
  5
10E
100
AcDbEntity
  8
SPRAYLINE_OUTLETS
370
    15
390
0
  6
Continuous
 62
     7
100
AcDbBlockReference
  2
i__DBS_SYMBOL_1
 10
123.847231
 20
178.616801
 30
0.0
 41
0.083333
 42
0.083333
  0
CIRCLE
  5
10F
100
AcDbEntity
  8
SL_WETTED_RADII
370
    15
390
0
  6
Continuous
 62
     7
100
AcDbCircle
 10
123.847231
 20
178.616801
 30
0.0
 40
13.0378
  0
INSERT
  5
110
100
AcDbEntity
  8
SPRAYLINE_OUTLETS
370
    15
390
0
  6
Continuous
 62
     7
100
AcDbBlockReference
  2
i__DBS_SYMBOL_1
 10
123.847231
 20
194.616801
 30
0.0
 41
0.083333
 42
0.083333
  0
CIRCLE
  5
111
100
AcDbEntity
  8
SL_WETTED_RADII
370
    15
390
0
  6
Continuous
 62
     7
100
AcDbCircle
 10
123.847231
 20
194.616801
 30
0.0
 40
13.0378
  0
INSERT
  5
112
100
AcDbEntity
  8
SPRAYLINE_OUTLETS
370
    15
390
0
  6
Continuous
 62
     7
100
AcDbBlockReference
  2
i__DBS_SYMBOL_1
 10
123.847231
 20
210.616802
 30
0.0
 41
0.083333
 42
0.083333
  0
CIRCLE
  5
113
100
AcDbEntity
  8
SL_WETTED_RADII
370
    15
390
0
  6
Continuous
 62
     7
100
AcDbCircle
 10
123.847231
 20
210.616802
 30
0.0
 40
13.0378
  0
INSERT
  5
114
100
AcDbEntity
  8
SPRAYLINE_OUTLETS
370
    15
390
0
  6
Continuous
 62
     7
100
AcDbBlockReference
  2
i__DBS_SYMBOL_1
 10
123.847231
 20
226.616802
 30
0.0
 41
0.083333
 42
0.083333
  0
CIRCLE
  5
115
100
AcDbEntity
  8
SL_WETTED_RADII
370
    15
390
0
  6
Continuous
 62
     7
100
AcDbCircle
 10
123.847231
 20
226.616802
 30
0.0
 40
13.0378
  0
INSERT
  5
116
100
AcDbEntity
  8
SPRAYLINE_OUTLETS
370
    15
390
0
  6
Continuous
 62
     7
100
AcDbBlockReference
  2
i__DBS_SYMBOL_1
 10
123.847231
 20
242.616148
 30
0.0
 41
0.083333
 42
0.083333
  0
CIRCLE
  5
117
100
AcDbEntity
  8
SL_WETTED_RADII
370
    15
390
0
  6
Continuous
 62
     7
100
AcDbCircle
 10
123.847231
 20
242.616148
 30
0.0
 40
13.0378
  0
INSERT
  5
118
100
AcDbEntity
  8
ZONE_JUNCTIONS
370
    15
390
0
  6
Continuous
 62
     7
100
AcDbBlockReference
  2
Junction
 10
145.848551
 20
92.616139
 30
0.0
 41
0.019685
 42
0.019685
  0
INSERT
  5
119
100
AcDbEntity
  8
ZONE_JUNCTIONS
370
    15
390
0
  6
Continuous
 62
     7
100
AcDbBlockReference
  2
Junction
 10
145.848551
 20
242.616148
 30
0.0
 41
0.019685
 42
0.019685
  0
INSERT
  5
11A
100
AcDbEntity
  8
SPRAYLINE_OUTLETS
370
    15
390
0
  6
Continuous
 62
     7
100
AcDbBlockReference
  2
i__DBS_SYMBOL_1
 10
145.848551
 20
98.616799
 30
0.0
 41
0.083333
 42
0.083333
  0
CIRCLE
  5
11B
100
AcDbEntity
  8
SL_WETTED_RADII
370
    15
390
0
  6
Continuous
 62
     7
100
AcDbCircle
 10
145.848551
 20
98.616799
 30
0.0
 40
13.0378
  0
INSERT
  5
11C
100
AcDbEntity
  8
SPRAYLINE_OUTLETS
370
    15
390
0
  6
Continuous
 62
     7
100
AcDbBlockReference
  2
i__DBS_SYMBOL_1
 10
145.848551
 20
114.616799
 30
0.0
 41
0.083333
 42
0.083333
  0
CIRCLE
  5
11D
100
AcDbEntity
  8
SL_WETTED_RADII
370
    15
390
0
  6
Continuous
 62
     7
100
AcDbCircle
 10
145.848551
 20
114.616799
 30
0.0
 40
13.0378
  0
INSERT
  5
11E
100
AcDbEntity
  8
SPRAYLINE_OUTLETS
370
    15
390
0
  6
Continuous
 62
     7
100
AcDbBlockReference
  2
i__DBS_SYMBOL_1
 10
145.848551
 20
130.6168
 30
0.0
 41
0.083333
 42
0.083333
  0
CIRCLE
  5
11F
100
AcDbEntity
  8
SL_WETTED_RADII
370
    15
390
0
  6
Continuous
 62
     7
100
AcDbCircle
 10
145.848551
 20
130.6168
 30
0.0
 40
13.0378
  0
INSERT
  5
120
100
AcDbEntity
  8
SPRAYLINE_OUTLETS
370
    15
390
0
  6
Continuous
 62
     7
100
AcDbBlockReference
  2
i__DBS_SYMBOL_1
 10
145.848551
 20
146.6168
 30
0.0
 41
0.083333
 42
0.083333
  0
CIRCLE
  5
121
100
AcDbEntity
  8
SL_WETTED_RADII
370
    15
390
0
  6
Continuous
 62
     7
100
AcDbCircle
 10
145.848551
 20
146.6168
 30
0.0
 40
13.0378
  0
INSERT
  5
122
100
AcDbEntity
  8
SPRAYLINE_OUTLETS
370
    15
390
0
  6
Continuous
 62
     7
100
AcDbBlockReference
  2
i__DBS_SYMBOL_1
 10
145.848551
 20
162.6168
 30
0.0
 41
0.083333
 42
0.083333
  0
CIRCLE
  5
123
100
AcDbEntity
  8
SL_WETTED_RADII
370
    15
390
0
  6
Continuous
 62
     7
100
AcDbCircle
 10
145.848551
 20
162.6168
 30
0.0
 40
13.0378
  0
INSERT
  5
124
100
AcDbEntity
  8
SPRAYLINE_OUTLETS
370
    15
390
0
  6
Continuous
 62
     7
100
AcDbBlockReference
  2
i__DBS_SYMBOL_1
 10
145.848551
 20
178.616801
 30
0.0
 41
0.083333
 42
0.083333
  0
CIRCLE
  5
125
100
AcDbEntity
  8
SL_WETTED_RADII
370
    15
390
0
  6
Continuous
 62
     7
100
AcDbCircle
 10
145.848551
 20
178.616801
 30
0.0
 40
13.0378
  0
INSERT
  5
126
100
AcDbEntity
  8
SPRAYLINE_OUTLETS
370
    15
390
0
  6
Continuous
 62
     7
100
AcDbBlockReference
  2
i__DBS_SYMBOL_1
 10
145.848551
 20
194.616801
 30
0.0
 41
0.083333
 42
0.083333
  0
CIRCLE
  5
127
100
AcDbEntity
  8
SL_WETTED_RADII
370
    15
390
0
  6
Continuous
 62
     7
100
AcDbCircle
 10
145.848551
 20
194.616801
 30
0.0
 40
13.0378
  0
INSERT
  5
128
100
AcDbEntity
  8
SPRAYLINE_OUTLETS
370
    15
390
0
  6
Continuous
 62
     7
100
AcDbBlockReference
  2
i__DBS_SYMBOL_1
 10
145.848551
 20
210.616802
 30
0.0
 41
0.083333
 42
0.083333
  0
CIRCLE
  5
129
100
AcDbEntity
  8
SL_WETTED_RADII
370
    15
390
0
  6
Continuous
 62
     7
100
AcDbCircle
 10
145.848551
 20
210.616802
 30
0.0
 40
13.0378
  0
INSERT
  5
12A
100
AcDbEntity
  8
SPRAYLINE_OUTLETS
370
    15
390
0
  6
Continuous
 62
     7
100
AcDbBlockReference
  2
i__DBS_SYMBOL_1
 10
145.848551
 20
226.616802
 30
0.0
 41
0.083333
 42
0.083333
  0
CIRCLE
  5
12B
100
AcDbEntity
  8
SL_WETTED_RADII
370
    15
390
0
  6
Continuous
 62
     7
100
AcDbCircle
 10
145.848551
 20
226.616802
 30
0.0
 40
13.0378
  0
INSERT
  5
12C
100
AcDbEntity
  8
SPRAYLINE_OUTLETS
370
    15
390
0
  6
Continuous
 62
     7
100
AcDbBlockReference
  2
i__DBS_SYMBOL_1
 10
145.848551
 20
242.616148
 30
0.0
 41
0.083333
 42
0.083333
  0
CIRCLE
  5
12D
100
AcDbEntity
  8
SL_WETTED_RADII
370
    15
390
0
  6
Continuous
 62
     7
100
AcDbCircle
 10
145.848551
 20
242.616148
 30
0.0
 40
13.0378
  0
INSERT
  5
12E
100
AcDbEntity
  8
ZONE_JUNCTIONS
370
    15
390
0
  6
Continuous
 62
     7
100
AcDbBlockReference
  2
Junction
 10
167.849863
 20
92.616139
 30
0.0
 41
0.019685
 42
0.019685
  0
INSERT
  5
12F
100
AcDbEntity
  8
ZONE_JUNCTIONS
370
    15
390
0
  6
Continuous
 62
     7
100
AcDbBlockReference
  2
Junction
 10
167.849863
 20
242.616148
 30
0.0
 41
0.019685
 42
0.019685
  0
INSERT
  5
130
100
AcDbEntity
  8
SPRAYLINE_OUTLETS
370
    15
390
0
  6
Continuous
 62
     7
100
AcDbBlockReference
  2
i__DBS_SYMBOL_1
 10
167.849863
 20
98.616799
 30
0.0
 41
0.083333
 42
0.083333
  0
CIRCLE
  5
131
100
AcDbEntity
  8
SL_WETTED_RADII
370
    15
390
0
  6
Continuous
 62
     7
100
AcDbCircle
 10
167.849863
 20
98.616799
 30
0.0
 40
13.0378
  0
INSERT
  5
132
100
AcDbEntity
  8
SPRAYLINE_OUTLETS
370
    15
390
0
  6
Continuous
 62
     7
100
AcDbBlockReference
  2
i__DBS_SYMBOL_1
 10
167.849863
 20
114.616799
 30
0.0
 41
0.083333
 42
0.083333
  0
CIRCLE
  5
133
100
AcDbEntity
  8
SL_WETTED_RADII
370
    15
390
0
  6
Continuous
 62
     7
100
AcDbCircle
 10
167.849863
 20
114.616799
 30
0.0
 40
13.0378
  0
INSERT
  5
134
100
AcDbEntity
  8
SPRAYLINE_OUTLETS
370
    15
390
0
  6
Continuous
 62
     7
100
AcDbBlockReference
  2
i__DBS_SYMBOL_1
 10
167.849863
 20
130.6168
 30
0.0
 41
0.083333
 42
0.083333
  0
CIRCLE
  5
135
100
AcDbEntity
  8
SL_WETTED_RADII
370
    15
390
0
  6
Continuous
 62
     7
100
AcDbCircle
 10
167.849863
 20
130.6168
 30
0.0
 40
13.0378
  0
INSERT
  5
136
100
AcDbEntity
  8
SPRAYLINE_OUTLETS
370
    15
390
0
  6
Continuous
 62
     7
100
AcDbBlockReference
  2
i__DBS_SYMBOL_1
 10
167.849863
 20
146.6168
 30
0.0
 41
0.083333
 42
0.083333
  0
CIRCLE
  5
137
100
AcDbEntity
  8
SL_WETTED_RADII
370
    15
390
0
  6
Continuous
 62
     7
100
AcDbCircle
 10
167.849863
 20
146.6168
 30
0.0
 40
13.0378
  0
INSERT
  5
138
100
AcDbEntity
  8
SPRAYLINE_OUTLETS
370
    15
390
0
  6
Continuous
 62
     7
100
AcDbBlockReference
  2
i__DBS_SYMBOL_1
 10
167.849863
 20
162.6168
 30
0.0
 41
0.083333
 42
0.083333
  0
CIRCLE
  5
139
100
AcDbEntity
  8
SL_WETTED_RADII
370
    15
390
0
  6
Continuous
 62
     7
100
AcDbCircle
 10
167.849863
 20
162.6168
 30
0.0
 40
13.0378
  0
INSERT
  5
13A
100
AcDbEntity
  8
SPRAYLINE_OUTLETS
370
    15
390
0
  6
Continuous
 62
     7
100
AcDbBlockReference
  2
i__DBS_SYMBOL_1
 10
167.849863
 20
178.616801
 30
0.0
 41
0.083333
 42
0.083333
  0
CIRCLE
  5
13B
100
AcDbEntity
  8
SL_WETTED_RADII
370
    15
390
0
  6
Continuous
 62
     7
100
AcDbCircle
 10
167.849863
 20
178.616801
 30
0.0
 40
13.0378
  0
INSERT
  5
13C
100
AcDbEntity
  8
SPRAYLINE_OUTLETS
370
    15
390
0
  6
Continuous
 62
     7
100
AcDbBlockReference
  2
i__DBS_SYMBOL_1
 10
167.849863
 20
194.616801
 30
0.0
 41
0.083333
 42
0.083333
  0
CIRCLE
  5
13D
100
AcDbEntity
  8
SL_WETTED_RADII
370
    15
390
0
  6
Continuous
 62
     7
100
AcDbCircle
 10
167.849863
 20
194.616801
 30
0.0
 40
13.0378
  0
INSERT
  5
13E
100
AcDbEntity
  8
SPRAYLINE_OUTLETS
370
    15
390
0
  6
Continuous
 62
     7
100
AcDbBlockReference
  2
i__DBS_SYMBOL_1
 10
167.849863
 20
210.616802
 30
0.0
 41
0.083333
 42
0.083333
  0
CIRCLE
  5
13F
100
AcDbEntity
  8
SL_WETTED_RADII
370
    15
390
0
  6
Continuous
 62
     7
100
AcDbCircle
 10
167.849863
 20
210.616802
 30
0.0
 40
13.0378
  0
INSERT
  5
140
100
AcDbEntity
  8
SPRAYLINE_OUTLETS
370
    15
390
0
  6
Continuous
 62
     7
100
AcDbBlockReference
  2
i__DBS_SYMBOL_1
 10
167.849863
 20
226.616802
 30
0.0
 41
0.083333
 42
0.083333
  0
CIRCLE
  5
141
100
AcDbEntity
  8
SL_WETTED_RADII
370
    15
390
0
  6
Continuous
 62
     7
100
AcDbCircle
 10
167.849863
 20
226.616802
 30
0.0
 40
13.0378
  0
INSERT
  5
142
100
AcDbEntity
  8
SPRAYLINE_OUTLETS
370
    15
390
0
  6
Continuous
 62
     7
100
AcDbBlockReference
  2
i__DBS_SYMBOL_1
 10
167.849863
 20
242.616148
 30
0.0
 41
0.083333
 42
0.083333
  0
CIRCLE
  5
143
100
AcDbEntity
  8
SL_WETTED_RADII
370
    15
390
0
  6
Continuous
 62
     7
100
AcDbCircle
 10
167.849863
 20
242.616148
 30
0.0
 40
13.0378
  0
INSERT
  5
144
100
AcDbEntity
  8
ZONE_JUNCTIONS
370
    15
390
0
  6
Continuous
 62
     7
100
AcDbBlockReference
  2
Junction
 10
189.851176
 20
92.616139
 30
0.0
 41
0.019685
 42
0.019685
  0
INSERT
  5
145
100
AcDbEntity
  8
ZONE_JUNCTIONS
370
    15
390
0
  6
Continuous
 62
     7
100
AcDbBlockReference
  2
Junction
 10
189.851176
 20
242.616148
 30
0.0
 41
0.019685
 42
0.019685
  0
INSERT
  5
146
100
AcDbEntity
  8
SPRAYLINE_OUTLETS
370
    15
390
0
  6
Continuous
 62
     7
100
AcDbBlockReference
  2
i__DBS_SYMBOL_1
 10
189.851176
 20
98.616799
 30
0.0
 41
0.083333
 42
0.083333
  0
CIRCLE
  5
147
100
AcDbEntity
  8
SL_WETTED_RADII
370
    15
390
0
  6
Continuous
 62
     7
100
AcDbCircle
 10
189.851176
 20
98.616799
 30
0.0
 40
13.0378
  0
INSERT
  5
148
100
AcDbEntity
  8
SPRAYLINE_OUTLETS
370
    15
390
0
  6
Continuous
 62
     7
100
AcDbBlockReference
  2
i__DBS_SYMBOL_1
 10
189.851176
 20
114.616799
 30
0.0
 41
0.083333
 42
0.083333
  0
CIRCLE
  5
149
100
AcDbEntity
  8
SL_WETTED_RADII
370
    15
390
0
  6
Continuous
 62
     7
100
AcDbCircle
 10
189.851176
 20
114.616799
 30
0.0
 40
13.0378
  0
INSERT
  5
14A
100
AcDbEntity
  8
SPRAYLINE_OUTLETS
370
    15
390
0
  6
Continuous
 62
     7
100
AcDbBlockReference
  2
i__DBS_SYMBOL_1
 10
189.851176
 20
130.6168
 30
0.0
 41
0.083333
 42
0.083333
  0
CIRCLE
  5
14B
100
AcDbEntity
  8
SL_WETTED_RADII
370
    15
390
0
  6
Continuous
 62
     7
100
AcDbCircle
 10
189.851176
 20
130.6168
 30
0.0
 40
13.0378
  0
INSERT
  5
14C
100
AcDbEntity
  8
SPRAYLINE_OUTLETS
370
    15
390
0
  6
Continuous
 62
     7
100
AcDbBlockReference
  2
i__DBS_SYMBOL_1
 10
189.851176
 20
146.6168
 30
0.0
 41
0.083333
 42
0.083333
  0
CIRCLE
  5
14D
100
AcDbEntity
  8
SL_WETTED_RADII
370
    15
390
0
  6
Continuous
 62
     7
100
AcDbCircle
 10
189.851176
 20
146.6168
 30
0.0
 40
13.0378
  0
INSERT
  5
14E
100
AcDbEntity
  8
SPRAYLINE_OUTLETS
370
    15
390
0
  6
Continuous
 62
     7
100
AcDbBlockReference
  2
i__DBS_SYMBOL_1
 10
189.851176
 20
162.6168
 30
0.0
 41
0.083333
 42
0.083333
  0
CIRCLE
  5
14F
100
AcDbEntity
  8
SL_WETTED_RADII
370
    15
390
0
  6
Continuous
 62
     7
100
AcDbCircle
 10
189.851176
 20
162.6168
 30
0.0
 40
13.0378
  0
INSERT
  5
150
100
AcDbEntity
  8
SPRAYLINE_OUTLETS
370
    15
390
0
  6
Continuous
 62
     7
100
AcDbBlockReference
  2
i__DBS_SYMBOL_1
 10
189.851176
 20
178.616801
 30
0.0
 41
0.083333
 42
0.083333
  0
CIRCLE
  5
151
100
AcDbEntity
  8
SL_WETTED_RADII
370
    15
390
0
  6
Continuous
 62
     7
100
AcDbCircle
 10
189.851176
 20
178.616801
 30
0.0
 40
13.0378
  0
INSERT
  5
152
100
AcDbEntity
  8
SPRAYLINE_OUTLETS
370
    15
390
0
  6
Continuous
 62
     7
100
AcDbBlockReference
  2
i__DBS_SYMBOL_1
 10
189.851176
 20
194.616801
 30
0.0
 41
0.083333
 42
0.083333
  0
CIRCLE
  5
153
100
AcDbEntity
  8
SL_WETTED_RADII
370
    15
390
0
  6
Continuous
 62
     7
100
AcDbCircle
 10
189.851176
 20
194.616801
 30
0.0
 40
13.0378
  0
INSERT
  5
154
100
AcDbEntity
  8
SPRAYLINE_OUTLETS
370
    15
390
0
  6
Continuous
 62
     7
100
AcDbBlockReference
  2
i__DBS_SYMBOL_1
 10
189.851176
 20
210.616802
 30
0.0
 41
0.083333
 42
0.083333
  0
CIRCLE
  5
155
100
AcDbEntity
  8
SL_WETTED_RADII
370
    15
390
0
  6
Continuous
 62
     7
100
AcDbCircle
 10
189.851176
 20
210.616802
 30
0.0
 40
13.0378
  0
INSERT
  5
156
100
AcDbEntity
  8
SPRAYLINE_OUTLETS
370
    15
390
0
  6
Continuous
 62
     7
100
AcDbBlockReference
  2
i__DBS_SYMBOL_1
 10
189.851176
 20
226.616802
 30
0.0
 41
0.083333
 42
0.083333
  0
CIRCLE
  5
157
100
AcDbEntity
  8
SL_WETTED_RADII
370
    15
390
0
  6
Continuous
 62
     7
100
AcDbCircle
 10
189.851176
 20
226.616802
 30
0.0
 40
13.0378
  0
INSERT
  5
158
100
AcDbEntity
  8
SPRAYLINE_OUTLETS
370
    15
390
0
  6
Continuous
 62
     7
100
AcDbBlockReference
  2
i__DBS_SYMBOL_1
 10
189.851176
 20
242.616148
 30
0.0
 41
0.083333
 42
0.083333
  0
CIRCLE
  5
159
100
AcDbEntity
  8
SL_WETTED_RADII
370
    15
390
0
  6
Continuous
 62
     7
100
AcDbCircle
 10
189.851176
 20
242.616148
 30
0.0
 40
13.0378
  0
INSERT
  5
15A
100
AcDbEntity
  8
ZONE_JUNCTIONS
370
    15
390
0
  6
Continuous
 62
     7
100
AcDbBlockReference
  2
Junction
 10
211.852488
 20
92.616139
 30
0.0
 41
0.019685
 42
0.019685
  0
INSERT
  5
15B
100
AcDbEntity
  8
ZONE_JUNCTIONS
370
    15
390
0
  6
Continuous
 62
     7
100
AcDbBlockReference
  2
Junction
 10
211.852488
 20
242.616148
 30
0.0
 41
0.019685
 42
0.019685
  0
INSERT
  5
15C
100
AcDbEntity
  8
SPRAYLINE_OUTLETS
370
    15
390
0
  6
Continuous
 62
     7
100
AcDbBlockReference
  2
i__DBS_SYMBOL_1
 10
211.852488
 20
98.616799
 30
0.0
 41
0.083333
 42
0.083333
  0
CIRCLE
  5
15D
100
AcDbEntity
  8
SL_WETTED_RADII
370
    15
390
0
  6
Continuous
 62
     7
100
AcDbCircle
 10
211.852488
 20
98.616799
 30
0.0
 40
13.0378
  0
INSERT
  5
15E
100
AcDbEntity
  8
SPRAYLINE_OUTLETS
370
    15
390
0
  6
Continuous
 62
     7
100
AcDbBlockReference
  2
i__DBS_SYMBOL_1
 10
211.852488
 20
114.616799
 30
0.0
 41
0.083333
 42
0.083333
  0
CIRCLE
  5
15F
100
AcDbEntity
  8
SL_WETTED_RADII
370
    15
390
0
  6
Continuous
 62
     7
100
AcDbCircle
 10
211.852488
 20
114.616799
 30
0.0
 40
13.0378
  0
INSERT
  5
160
100
AcDbEntity
  8
SPRAYLINE_OUTLETS
370
    15
390
0
  6
Continuous
 62
     7
100
AcDbBlockReference
  2
i__DBS_SYMBOL_1
 10
211.852488
 20
130.6168
 30
0.0
 41
0.083333
 42
0.083333
  0
CIRCLE
  5
161
100
AcDbEntity
  8
SL_WETTED_RADII
370
    15
390
0
  6
Continuous
 62
     7
100
AcDbCircle
 10
211.852488
 20
130.6168
 30
0.0
 40
13.0378
  0
INSERT
  5
162
100
AcDbEntity
  8
SPRAYLINE_OUTLETS
370
    15
390
0
  6
Continuous
 62
     7
100
AcDbBlockReference
  2
i__DBS_SYMBOL_1
 10
211.852488
 20
146.6168
 30
0.0
 41
0.083333
 42
0.083333
  0
CIRCLE
  5
163
100
AcDbEntity
  8
SL_WETTED_RADII
370
    15
390
0
  6
Continuous
 62
     7
100
AcDbCircle
 10
211.852488
 20
146.6168
 30
0.0
 40
13.0378
  0
INSERT
  5
164
100
AcDbEntity
  8
SPRAYLINE_OUTLETS
370
    15
390
0
  6
Continuous
 62
     7
100
AcDbBlockReference
  2
i__DBS_SYMBOL_1
 10
211.852488
 20
162.6168
 30
0.0
 41
0.083333
 42
0.083333
  0
CIRCLE
  5
165
100
AcDbEntity
  8
SL_WETTED_RADII
370
    15
390
0
  6
Continuous
 62
     7
100
AcDbCircle
 10
211.852488
 20
162.6168
 30
0.0
 40
13.0378
  0
INSERT
  5
166
100
AcDbEntity
  8
SPRAYLINE_OUTLETS
370
    15
390
0
  6
Continuous
 62
     7
100
AcDbBlockReference
  2
i__DBS_SYMBOL_1
 10
211.852488
 20
178.616801
 30
0.0
 41
0.083333
 42
0.083333
  0
CIRCLE
  5
167
100
AcDbEntity
  8
SL_WETTED_RADII
370
    15
390
0
  6
Continuous
 62
     7
100
AcDbCircle
 10
211.852488
 20
178.616801
 30
0.0
 40
13.0378
  0
INSERT
  5
168
100
AcDbEntity
  8
SPRAYLINE_OUTLETS
370
    15
390
0
  6
Continuous
 62
     7
100
AcDbBlockReference
  2
i__DBS_SYMBOL_1
 10
211.852488
 20
194.616801
 30
0.0
 41
0.083333
 42
0.083333
  0
CIRCLE
  5
169
100
AcDbEntity
  8
SL_WETTED_RADII
370
    15
390
0
  6
Continuous
 62
     7
100
AcDbCircle
 10
211.852488
 20
194.616801
 30
0.0
 40
13.0378
  0
INSERT
  5
16A
100
AcDbEntity
  8
SPRAYLINE_OUTLETS
370
    15
390
0
  6
Continuous
 62
     7
100
AcDbBlockReference
  2
i__DBS_SYMBOL_1
 10
211.852488
 20
210.616802
 30
0.0
 41
0.083333
 42
0.083333
  0
CIRCLE
  5
16B
100
AcDbEntity
  8
SL_WETTED_RADII
370
    15
390
0
  6
Continuous
 62
     7
100
AcDbCircle
 10
211.852488
 20
210.616802
 30
0.0
 40
13.0378
  0
INSERT
  5
16C
100
AcDbEntity
  8
SPRAYLINE_OUTLETS
370
    15
390
0
  6
Continuous
 62
     7
100
AcDbBlockReference
  2
i__DBS_SYMBOL_1
 10
211.852488
 20
226.616802
 30
0.0
 41
0.083333
 42
0.083333
  0
CIRCLE
  5
16D
100
AcDbEntity
  8
SL_WETTED_RADII
370
    15
390
0
  6
Continuous
 62
     7
100
AcDbCircle
 10
211.852488
 20
226.616802
 30
0.0
 40
13.0378
  0
INSERT
  5
16E
100
AcDbEntity
  8
SPRAYLINE_OUTLETS
370
    15
390
0
  6
Continuous
 62
     7
100
AcDbBlockReference
  2
i__DBS_SYMBOL_1
 10
211.852488
 20
242.616148
 30
0.0
 41
0.083333
 42
0.083333
  0
CIRCLE
  5
16F
100
AcDbEntity
  8
SL_WETTED_RADII
370
    15
390
0
  6
Continuous
 62
     7
100
AcDbCircle
 10
211.852488
 20
242.616148
 30
0.0
 40
13.0378
  0
INSERT
  5
170
100
AcDbEntity
  8
ZONE_JUNCTIONS
370
    15
390
0
  6
Continuous
 62
     7
100
AcDbBlockReference
  2
Junction
 10
233.853801
 20
92.616139
 30
0.0
 41
0.019685
 42
0.019685
  0
INSERT
  5
171
100
AcDbEntity
  8
ZONE_JUNCTIONS
370
    15
390
0
  6
Continuous
 62
     7
100
AcDbBlockReference
  2
Junction
 10
233.853801
 20
242.616148
 30
0.0
 41
0.019685
 42
0.019685
  0
INSERT
  5
172
100
AcDbEntity
  8
SPRAYLINE_OUTLETS
370
    15
390
0
  6
Continuous
 62
     7
100
AcDbBlockReference
  2
i__DBS_SYMBOL_1
 10
233.853801
 20
98.616799
 30
0.0
 41
0.083333
 42
0.083333
  0
CIRCLE
  5
173
100
AcDbEntity
  8
SL_WETTED_RADII
370
    15
390
0
  6
Continuous
 62
     7
100
AcDbCircle
 10
233.853801
 20
98.616799
 30
0.0
 40
13.0378
  0
INSERT
  5
174
100
AcDbEntity
  8
SPRAYLINE_OUTLETS
370
    15
390
0
  6
Continuous
 62
     7
100
AcDbBlockReference
  2
i__DBS_SYMBOL_1
 10
233.853801
 20
114.616799
 30
0.0
 41
0.083333
 42
0.083333
  0
CIRCLE
  5
175
100
AcDbEntity
  8
SL_WETTED_RADII
370
    15
390
0
  6
Continuous
 62
     7
100
AcDbCircle
 10
233.853801
 20
114.616799
 30
0.0
 40
13.0378
  0
INSERT
  5
176
100
AcDbEntity
  8
SPRAYLINE_OUTLETS
370
    15
390
0
  6
Continuous
 62
     7
100
AcDbBlockReference
  2
i__DBS_SYMBOL_1
 10
233.853801
 20
130.6168
 30
0.0
 41
0.083333
 42
0.083333
  0
CIRCLE
  5
177
100
AcDbEntity
  8
SL_WETTED_RADII
370
    15
390
0
  6
Continuous
 62
     7
100
AcDbCircle
 10
233.853801
 20
130.6168
 30
0.0
 40
13.0378
  0
INSERT
  5
178
100
AcDbEntity
  8
SPRAYLINE_OUTLETS
370
    15
390
0
  6
Continuous
 62
     7
100
AcDbBlockReference
  2
i__DBS_SYMBOL_1
 10
233.853801
 20
146.6168
 30
0.0
 41
0.083333
 42
0.083333
  0
CIRCLE
  5
179
100
AcDbEntity
  8
SL_WETTED_RADII
370
    15
390
0
  6
Continuous
 62
     7
100
AcDbCircle
 10
233.853801
 20
146.6168
 30
0.0
 40
13.0378
  0
INSERT
  5
17A
100
AcDbEntity
  8
SPRAYLINE_OUTLETS
370
    15
390
0
  6
Continuous
 62
     7
100
AcDbBlockReference
  2
i__DBS_SYMBOL_1
 10
233.853801
 20
162.6168
 30
0.0
 41
0.083333
 42
0.083333
  0
CIRCLE
  5
17B
100
AcDbEntity
  8
SL_WETTED_RADII
370
    15
390
0
  6
Continuous
 62
     7
100
AcDbCircle
 10
233.853801
 20
162.6168
 30
0.0
 40
13.0378
  0
INSERT
  5
17C
100
AcDbEntity
  8
SPRAYLINE_OUTLETS
370
    15
390
0
  6
Continuous
 62
     7
100
AcDbBlockReference
  2
i__DBS_SYMBOL_1
 10
233.853801
 20
178.616801
 30
0.0
 41
0.083333
 42
0.083333
  0
CIRCLE
  5
17D
100
AcDbEntity
  8
SL_WETTED_RADII
370
    15
390
0
  6
Continuous
 62
     7
100
AcDbCircle
 10
233.853801
 20
178.616801
 30
0.0
 40
13.0378
  0
INSERT
  5
17E
100
AcDbEntity
  8
SPRAYLINE_OUTLETS
370
    15
390
0
  6
Continuous
 62
     7
100
AcDbBlockReference
  2
i__DBS_SYMBOL_1
 10
233.853801
 20
194.616801
 30
0.0
 41
0.083333
 42
0.083333
  0
CIRCLE
  5
17F
100
AcDbEntity
  8
SL_WETTED_RADII
370
    15
390
0
  6
Continuous
 62
     7
100
AcDbCircle
 10
233.853801
 20
194.616801
 30
0.0
 40
13.0378
  0
INSERT
  5
180
100
AcDbEntity
  8
SPRAYLINE_OUTLETS
370
    15
390
0
  6
Continuous
 62
     7
100
AcDbBlockReference
  2
i__DBS_SYMBOL_1
 10
233.853801
 20
210.616802
 30
0.0
 41
0.083333
 42
0.083333
  0
CIRCLE
  5
181
100
AcDbEntity
  8
SL_WETTED_RADII
370
    15
390
0
  6
Continuous
 62
     7
100
AcDbCircle
 10
233.853801
 20
210.616802
 30
0.0
 40
13.0378
  0
INSERT
  5
182
100
AcDbEntity
  8
SPRAYLINE_OUTLETS
370
    15
390
0
  6
Continuous
 62
     7
100
AcDbBlockReference
  2
i__DBS_SYMBOL_1
 10
233.853801
 20
226.616802
 30
0.0
 41
0.083333
 42
0.083333
  0
CIRCLE
  5
183
100
AcDbEntity
  8
SL_WETTED_RADII
370
    15
390
0
  6
Continuous
 62
     7
100
AcDbCircle
 10
233.853801
 20
226.616802
 30
0.0
 40
13.0378
  0
INSERT
  5
184
100
AcDbEntity
  8
SPRAYLINE_OUTLETS
370
    15
390
0
  6
Continuous
 62
     7
100
AcDbBlockReference
  2
i__DBS_SYMBOL_1
 10
233.853801
 20
242.616148
 30
0.0
 41
0.083333
 42
0.083333
  0
CIRCLE
  5
185
100
AcDbEntity
  8
SL_WETTED_RADII
370
    15
390
0
  6
Continuous
 62
     7
100
AcDbCircle
 10
233.853801
 20
242.616148
 30
0.0
 40
13.0378
  0
INSERT
  5
186
100
AcDbEntity
  8
ZONE_JUNCTIONS
370
    15
390
0
  6
Continuous
 62
     7
100
AcDbBlockReference
  2
Junction
 10
255.855114
 20
92.616139
 30
0.0
 41
0.019685
 42
0.019685
  0
INSERT
  5
187
100
AcDbEntity
  8
ZONE_JUNCTIONS
370
    15
390
0
  6
Continuous
 62
     7
100
AcDbBlockReference
  2
Junction
 10
255.855114
 20
242.616148
 30
0.0
 41
0.019685
 42
0.019685
  0
INSERT
  5
188
100
AcDbEntity
  8
SPRAYLINE_OUTLETS
370
    15
390
0
  6
Continuous
 62
     7
100
AcDbBlockReference
  2
i__DBS_SYMBOL_1
 10
255.855114
 20
98.616799
 30
0.0
 41
0.083333
 42
0.083333
  0
CIRCLE
  5
189
100
AcDbEntity
  8
SL_WETTED_RADII
370
    15
390
0
  6
Continuous
 62
     7
100
AcDbCircle
 10
255.855114
 20
98.616799
 30
0.0
 40
13.0378
  0
INSERT
  5
18A
100
AcDbEntity
  8
SPRAYLINE_OUTLETS
370
    15
390
0
  6
Continuous
 62
     7
100
AcDbBlockReference
  2
i__DBS_SYMBOL_1
 10
255.855114
 20
114.616799
 30
0.0
 41
0.083333
 42
0.083333
  0
CIRCLE
  5
18B
100
AcDbEntity
  8
SL_WETTED_RADII
370
    15
390
0
  6
Continuous
 62
     7
100
AcDbCircle
 10
255.855114
 20
114.616799
 30
0.0
 40
13.0378
  0
INSERT
  5
18C
100
AcDbEntity
  8
SPRAYLINE_OUTLETS
370
    15
390
0
  6
Continuous
 62
     7
100
AcDbBlockReference
  2
i__DBS_SYMBOL_1
 10
255.855114
 20
130.6168
 30
0.0
 41
0.083333
 42
0.083333
  0
CIRCLE
  5
18D
100
AcDbEntity
  8
SL_WETTED_RADII
370
    15
390
0
  6
Continuous
 62
     7
100
AcDbCircle
 10
255.855114
 20
130.6168
 30
0.0
 40
13.0378
  0
INSERT
  5
18E
100
AcDbEntity
  8
SPRAYLINE_OUTLETS
370
    15
390
0
  6
Continuous
 62
     7
100
AcDbBlockReference
  2
i__DBS_SYMBOL_1
 10
255.855114
 20
146.6168
 30
0.0
 41
0.083333
 42
0.083333
  0
CIRCLE
  5
18F
100
AcDbEntity
  8
SL_WETTED_RADII
370
    15
390
0
  6
Continuous
 62
     7
100
AcDbCircle
 10
255.855114
 20
146.6168
 30
0.0
 40
13.0378
  0
INSERT
  5
190
100
AcDbEntity
  8
SPRAYLINE_OUTLETS
370
    15
390
0
  6
Continuous
 62
     7
100
AcDbBlockReference
  2
i__DBS_SYMBOL_1
 10
255.855114
 20
162.6168
 30
0.0
 41
0.083333
 42
0.083333
  0
CIRCLE
  5
191
100
AcDbEntity
  8
SL_WETTED_RADII
370
    15
390
0
  6
Continuous
 62
     7
100
AcDbCircle
 10
255.855114
 20
162.6168
 30
0.0
 40
13.0378
  0
INSERT
  5
192
100
AcDbEntity
  8
SPRAYLINE_OUTLETS
370
    15
390
0
  6
Continuous
 62
     7
100
AcDbBlockReference
  2
i__DBS_SYMBOL_1
 10
255.855114
 20
178.616801
 30
0.0
 41
0.083333
 42
0.083333
  0
CIRCLE
  5
193
100
AcDbEntity
  8
SL_WETTED_RADII
370
    15
390
0
  6
Continuous
 62
     7
100
AcDbCircle
 10
255.855114
 20
178.616801
 30
0.0
 40
13.0378
  0
INSERT
  5
194
100
AcDbEntity
  8
SPRAYLINE_OUTLETS
370
    15
390
0
  6
Continuous
 62
     7
100
AcDbBlockReference
  2
i__DBS_SYMBOL_1
 10
255.855114
 20
194.616801
 30
0.0
 41
0.083333
 42
0.083333
  0
CIRCLE
  5
195
100
AcDbEntity
  8
SL_WETTED_RADII
370
    15
390
0
  6
Continuous
 62
     7
100
AcDbCircle
 10
255.855114
 20
194.616801
 30
0.0
 40
13.0378
  0
INSERT
  5
196
100
AcDbEntity
  8
SPRAYLINE_OUTLETS
370
    15
390
0
  6
Continuous
 62
     7
100
AcDbBlockReference
  2
i__DBS_SYMBOL_1
 10
255.855114
 20
210.616802
 30
0.0
 41
0.083333
 42
0.083333
  0
CIRCLE
  5
197
100
AcDbEntity
  8
SL_WETTED_RADII
370
    15
390
0
  6
Continuous
 62
     7
100
AcDbCircle
 10
255.855114
 20
210.616802
 30
0.0
 40
13.0378
  0
INSERT
  5
198
100
AcDbEntity
  8
SPRAYLINE_OUTLETS
370
    15
390
0
  6
Continuous
 62
     7
100
AcDbBlockReference
  2
i__DBS_SYMBOL_1
 10
255.855114
 20
226.616802
 30
0.0
 41
0.083333
 42
0.083333
  0
CIRCLE
  5
199
100
AcDbEntity
  8
SL_WETTED_RADII
370
    15
390
0
  6
Continuous
 62
     7
100
AcDbCircle
 10
255.855114
 20
226.616802
 30
0.0
 40
13.0378
  0
INSERT
  5
19A
100
AcDbEntity
  8
SPRAYLINE_OUTLETS
370
    15
390
0
  6
Continuous
 62
     7
100
AcDbBlockReference
  2
i__DBS_SYMBOL_1
 10
255.855114
 20
242.616148
 30
0.0
 41
0.083333
 42
0.083333
  0
CIRCLE
  5
19B
100
AcDbEntity
  8
SL_WETTED_RADII
370
    15
390
0
  6
Continuous
 62
     7
100
AcDbCircle
 10
255.855114
 20
242.616148
 30
0.0
 40
13.0378
  0
INSERT
  5
19C
100
AcDbEntity
  8
ZONE_JUNCTIONS
370
    15
390
0
  6
Continuous
 62
     7
100
AcDbBlockReference
  2
Junction
 10
277.856426
 20
92.616139
 30
0.0
 41
0.019685
 42
0.019685
  0
INSERT
  5
19D
100
AcDbEntity
  8
ZONE_JUNCTIONS
370
    15
390
0
  6
Continuous
 62
     7
100
AcDbBlockReference
  2
Junction
 10
277.856426
 20
242.616148
 30
0.0
 41
0.019685
 42
0.019685
  0
INSERT
  5
19E
100
AcDbEntity
  8
SPRAYLINE_OUTLETS
370
    15
390
0
  6
Continuous
 62
     7
100
AcDbBlockReference
  2
i__DBS_SYMBOL_1
 10
277.856426
 20
98.616799
 30
0.0
 41
0.083333
 42
0.083333
  0
CIRCLE
  5
19F
100
AcDbEntity
  8
SL_WETTED_RADII
370
    15
390
0
  6
Continuous
 62
     7
100
AcDbCircle
 10
277.856426
 20
98.616799
 30
0.0
 40
13.0378
  0
INSERT
  5
1A0
100
AcDbEntity
  8
SPRAYLINE_OUTLETS
370
    15
390
0
  6
Continuous
 62
     7
100
AcDbBlockReference
  2
i__DBS_SYMBOL_1
 10
277.856426
 20
114.616799
 30
0.0
 41
0.083333
 42
0.083333
  0
CIRCLE
  5
1A1
100
AcDbEntity
  8
SL_WETTED_RADII
370
    15
390
0
  6
Continuous
 62
     7
100
AcDbCircle
 10
277.856426
 20
114.616799
 30
0.0
 40
13.0378
  0
INSERT
  5
1A2
100
AcDbEntity
  8
SPRAYLINE_OUTLETS
370
    15
390
0
  6
Continuous
 62
     7
100
AcDbBlockReference
  2
i__DBS_SYMBOL_1
 10
277.856426
 20
130.6168
 30
0.0
 41
0.083333
 42
0.083333
  0
CIRCLE
  5
1A3
100
AcDbEntity
  8
SL_WETTED_RADII
370
    15
390
0
  6
Continuous
 62
     7
100
AcDbCircle
 10
277.856426
 20
130.6168
 30
0.0
 40
13.0378
  0
INSERT
  5
1A4
100
AcDbEntity
  8
SPRAYLINE_OUTLETS
370
    15
390
0
  6
Continuous
 62
     7
100
AcDbBlockReference
  2
i__DBS_SYMBOL_1
 10
277.856426
 20
146.6168
 30
0.0
 41
0.083333
 42
0.083333
  0
CIRCLE
  5
1A5
100
AcDbEntity
  8
SL_WETTED_RADII
370
    15
390
0
  6
Continuous
 62
     7
100
AcDbCircle
 10
277.856426
 20
146.6168
 30
0.0
 40
13.0378
  0
INSERT
  5
1A6
100
AcDbEntity
  8
SPRAYLINE_OUTLETS
370
    15
390
0
  6
Continuous
 62
     7
100
AcDbBlockReference
  2
i__DBS_SYMBOL_1
 10
277.856426
 20
162.6168
 30
0.0
 41
0.083333
 42
0.083333
  0
CIRCLE
  5
1A7
100
AcDbEntity
  8
SL_WETTED_RADII
370
    15
390
0
  6
Continuous
 62
     7
100
AcDbCircle
 10
277.856426
 20
162.6168
 30
0.0
 40
13.0378
  0
INSERT
  5
1A8
100
AcDbEntity
  8
SPRAYLINE_OUTLETS
370
    15
390
0
  6
Continuous
 62
     7
100
AcDbBlockReference
  2
i__DBS_SYMBOL_1
 10
277.856426
 20
178.616801
 30
0.0
 41
0.083333
 42
0.083333
  0
CIRCLE
  5
1A9
100
AcDbEntity
  8
SL_WETTED_RADII
370
    15
390
0
  6
Continuous
 62
     7
100
AcDbCircle
 10
277.856426
 20
178.616801
 30
0.0
 40
13.0378
  0
INSERT
  5
1AA
100
AcDbEntity
  8
SPRAYLINE_OUTLETS
370
    15
390
0
  6
Continuous
 62
     7
100
AcDbBlockReference
  2
i__DBS_SYMBOL_1
 10
277.856426
 20
194.616801
 30
0.0
 41
0.083333
 42
0.083333
  0
CIRCLE
  5
1AB
100
AcDbEntity
  8
SL_WETTED_RADII
370
    15
390
0
  6
Continuous
 62
     7
100
AcDbCircle
 10
277.856426
 20
194.616801
 30
0.0
 40
13.0378
  0
INSERT
  5
1AC
100
AcDbEntity
  8
SPRAYLINE_OUTLETS
370
    15
390
0
  6
Continuous
 62
     7
100
AcDbBlockReference
  2
i__DBS_SYMBOL_1
 10
277.856426
 20
210.616802
 30
0.0
 41
0.083333
 42
0.083333
  0
CIRCLE
  5
1AD
100
AcDbEntity
  8
SL_WETTED_RADII
370
    15
390
0
  6
Continuous
 62
     7
100
AcDbCircle
 10
277.856426
 20
210.616802
 30
0.0
 40
13.0378
  0
INSERT
  5
1AE
100
AcDbEntity
  8
SPRAYLINE_OUTLETS
370
    15
390
0
  6
Continuous
 62
     7
100
AcDbBlockReference
  2
i__DBS_SYMBOL_1
 10
277.856426
 20
226.616802
 30
0.0
 41
0.083333
 42
0.083333
  0
CIRCLE
  5
1AF
100
AcDbEntity
  8
SL_WETTED_RADII
370
    15
390
0
  6
Continuous
 62
     7
100
AcDbCircle
 10
277.856426
 20
226.616802
 30
0.0
 40
13.0378
  0
INSERT
  5
1B0
100
AcDbEntity
  8
SPRAYLINE_OUTLETS
370
    15
390
0
  6
Continuous
 62
     7
100
AcDbBlockReference
  2
i__DBS_SYMBOL_1
 10
277.856426
 20
242.616148
 30
0.0
 41
0.083333
 42
0.083333
  0
CIRCLE
  5
1B1
100
AcDbEntity
  8
SL_WETTED_RADII
370
    15
390
0
  6
Continuous
 62
     7
100
AcDbCircle
 10
277.856426
 20
242.616148
 30
0.0
 40
13.0378
  0
INSERT
  5
1B2
100
AcDbEntity
  8
ZONE_JUNCTIONS
370
    15
390
0
  6
Continuous
 62
     7
100
AcDbBlockReference
  2
Junction
 10
299.857739
 20
92.616139
 30
0.0
 41
0.019685
 42
0.019685
  0
INSERT
  5
1B3
100
AcDbEntity
  8
ZONE_JUNCTIONS
370
    15
390
0
  6
Continuous
 62
     7
100
AcDbBlockReference
  2
Junction
 10
299.857739
 20
242.616148
 30
0.0
 41
0.019685
 42
0.019685
  0
INSERT
  5
1B4
100
AcDbEntity
  8
SPRAYLINE_OUTLETS
370
    15
390
0
  6
Continuous
 62
     7
100
AcDbBlockReference
  2
i__DBS_SYMBOL_1
 10
299.857739
 20
98.616799
 30
0.0
 41
0.083333
 42
0.083333
  0
CIRCLE
  5
1B5
100
AcDbEntity
  8
SL_WETTED_RADII
370
    15
390
0
  6
Continuous
 62
     7
100
AcDbCircle
 10
299.857739
 20
98.616799
 30
0.0
 40
13.0378
  0
INSERT
  5
1B6
100
AcDbEntity
  8
SPRAYLINE_OUTLETS
370
    15
390
0
  6
Continuous
 62
     7
100
AcDbBlockReference
  2
i__DBS_SYMBOL_1
 10
299.857739
 20
114.616799
 30
0.0
 41
0.083333
 42
0.083333
  0
CIRCLE
  5
1B7
100
AcDbEntity
  8
SL_WETTED_RADII
370
    15
390
0
  6
Continuous
 62
     7
100
AcDbCircle
 10
299.857739
 20
114.616799
 30
0.0
 40
13.0378
  0
INSERT
  5
1B8
100
AcDbEntity
  8
SPRAYLINE_OUTLETS
370
    15
390
0
  6
Continuous
 62
     7
100
AcDbBlockReference
  2
i__DBS_SYMBOL_1
 10
299.857739
 20
130.6168
 30
0.0
 41
0.083333
 42
0.083333
  0
CIRCLE
  5
1B9
100
AcDbEntity
  8
SL_WETTED_RADII
370
    15
390
0
  6
Continuous
 62
     7
100
AcDbCircle
 10
299.857739
 20
130.6168
 30
0.0
 40
13.0378
  0
INSERT
  5
1BA
100
AcDbEntity
  8
SPRAYLINE_OUTLETS
370
    15
390
0
  6
Continuous
 62
     7
100
AcDbBlockReference
  2
i__DBS_SYMBOL_1
 10
299.857739
 20
146.6168
 30
0.0
 41
0.083333
 42
0.083333
  0
CIRCLE
  5
1BB
100
AcDbEntity
  8
SL_WETTED_RADII
370
    15
390
0
  6
Continuous
 62
     7
100
AcDbCircle
 10
299.857739
 20
146.6168
 30
0.0
 40
13.0378
  0
INSERT
  5
1BC
100
AcDbEntity
  8
SPRAYLINE_OUTLETS
370
    15
390
0
  6
Continuous
 62
     7
100
AcDbBlockReference
  2
i__DBS_SYMBOL_1
 10
299.857739
 20
162.6168
 30
0.0
 41
0.083333
 42
0.083333
  0
CIRCLE
  5
1BD
100
AcDbEntity
  8
SL_WETTED_RADII
370
    15
390
0
  6
Continuous
 62
     7
100
AcDbCircle
 10
299.857739
 20
162.6168
 30
0.0
 40
13.0378
  0
INSERT
  5
1BE
100
AcDbEntity
  8
SPRAYLINE_OUTLETS
370
    15
390
0
  6
Continuous
 62
     7
100
AcDbBlockReference
  2
i__DBS_SYMBOL_1
 10
299.857739
 20
178.616801
 30
0.0
 41
0.083333
 42
0.083333
  0
CIRCLE
  5
1BF
100
AcDbEntity
  8
SL_WETTED_RADII
370
    15
390
0
  6
Continuous
 62
     7
100
AcDbCircle
 10
299.857739
 20
178.616801
 30
0.0
 40
13.0378
  0
INSERT
  5
1C0
100
AcDbEntity
  8
SPRAYLINE_OUTLETS
370
    15
390
0
  6
Continuous
 62
     7
100
AcDbBlockReference
  2
i__DBS_SYMBOL_1
 10
299.857739
 20
194.616801
 30
0.0
 41
0.083333
 42
0.083333
  0
CIRCLE
  5
1C1
100
AcDbEntity
  8
SL_WETTED_RADII
370
    15
390
0
  6
Continuous
 62
     7
100
AcDbCircle
 10
299.857739
 20
194.616801
 30
0.0
 40
13.0378
  0
INSERT
  5
1C2
100
AcDbEntity
  8
SPRAYLINE_OUTLETS
370
    15
390
0
  6
Continuous
 62
     7
100
AcDbBlockReference
  2
i__DBS_SYMBOL_1
 10
299.857739
 20
210.616802
 30
0.0
 41
0.083333
 42
0.083333
  0
CIRCLE
  5
1C3
100
AcDbEntity
  8
SL_WETTED_RADII
370
    15
390
0
  6
Continuous
 62
     7
100
AcDbCircle
 10
299.857739
 20
210.616802
 30
0.0
 40
13.0378
  0
INSERT
  5
1C4
100
AcDbEntity
  8
SPRAYLINE_OUTLETS
370
    15
390
0
  6
Continuous
 62
     7
100
AcDbBlockReference
  2
i__DBS_SYMBOL_1
 10
299.857739
 20
226.616802
 30
0.0
 41
0.083333
 42
0.083333
  0
CIRCLE
  5
1C5
100
AcDbEntity
  8
SL_WETTED_RADII
370
    15
390
0
  6
Continuous
 62
     7
100
AcDbCircle
 10
299.857739
 20
226.616802
 30
0.0
 40
13.0378
  0
INSERT
  5
1C6
100
AcDbEntity
  8
SPRAYLINE_OUTLETS
370
    15
390
0
  6
Continuous
 62
     7
100
AcDbBlockReference
  2
i__DBS_SYMBOL_1
 10
299.857739
 20
242.616148
 30
0.0
 41
0.083333
 42
0.083333
  0
CIRCLE
  5
1C7
100
AcDbEntity
  8
SL_WETTED_RADII
370
    15
390
0
  6
Continuous
 62
     7
100
AcDbCircle
 10
299.857739
 20
242.616148
 30
0.0
 40
13.0378
  0
INSERT
  5
1D2
100
AcDbEntity
  8
CONTROL_VALVES
370
    15
390
0
  6
Continuous
 62
   178
100
AcDbBlockReference
  2
Valve
 10
134.847891
 20
167.616144
 30
0.0
 41
0.049213
 42
0.049213
  0
INSERT
  5
1D3
100
AcDbEntity
  8
ZONE_JUNCTIONS
370
    15
390
0
  6
Continuous
 62
     7
100
AcDbBlockReference
  2
Junction
 10
-30.161957
 20
167.616144
 30
0.0
 41
0.019685
 42
0.019685
  0
INSERT
  5
1D4
100
AcDbEntity
  8
ZONE_JUNCTIONS
370
    15
390
0
  6
Continuous
 62
     7
100
AcDbBlockReference
  2
Junction
 10
-8.160644
 20
167.616144
 30
0.0
 41
0.019685
 42
0.019685
  0
INSERT
  5
1D5
100
AcDbEntity
  8
ZONE_JUNCTIONS
370
    15
390
0
  6
Continuous
 62
     7
100
AcDbBlockReference
  2
Junction
 10
13.840668
 20
167.616144
 30
0.0
 41
0.019685
 42
0.019685
  0
INSERT
  5
1D6
100
AcDbEntity
  8
ZONE_JUNCTIONS
370
    15
390
0
  6
Continuous
 62
     7
100
AcDbBlockReference
  2
Junction
 10
35.841981
 20
167.616144
 30
0.0
 41
0.019685
 42
0.019685
  0
INSERT
  5
1D7
100
AcDbEntity
  8
ZONE_JUNCTIONS
370
    15
390
0
  6
Continuous
 62
     7
100
AcDbBlockReference
  2
Junction
 10
57.843294
 20
167.616144
 30
0.0
 41
0.019685
 42
0.019685
  0
INSERT
  5
1D8
100
AcDbEntity
  8
ZONE_JUNCTIONS
370
    15
390
0
  6
Continuous
 62
     7
100
AcDbBlockReference
  2
Junction
 10
79.844606
 20
167.616144
 30
0.0
 41
0.019685
 42
0.019685
  0
INSERT
  5
1D9
100
AcDbEntity
  8
ZONE_JUNCTIONS
370
    15
390
0
  6
Continuous
 62
     7
100
AcDbBlockReference
  2
Junction
 10
101.845919
 20
167.616144
 30
0.0
 41
0.019685
 42
0.019685
  0
INSERT
  5
1DA
100
AcDbEntity
  8
ZONE_JUNCTIONS
370
    15
390
0
  6
Continuous
 62
     7
100
AcDbBlockReference
  2
Junction
 10
123.847231
 20
167.616144
 30
0.0
 41
0.019685
 42
0.019685
  0
INSERT
  5
1DB
100
AcDbEntity
  8
ZONE_JUNCTIONS
370
    15
390
0
  6
Continuous
 62
     7
100
AcDbBlockReference
  2
Junction
 10
145.848551
 20
167.616144
 30
0.0
 41
0.019685
 42
0.019685
  0
INSERT
  5
1DC
100
AcDbEntity
  8
ZONE_JUNCTIONS
370
    15
390
0
  6
Continuous
 62
     7
100
AcDbBlockReference
  2
Junction
 10
167.849863
 20
167.616144
 30
0.0
 41
0.019685
 42
0.019685
  0
INSERT
  5
1DD
100
AcDbEntity
  8
ZONE_JUNCTIONS
370
    15
390
0
  6
Continuous
 62
     7
100
AcDbBlockReference
  2
Junction
 10
189.851176
 20
167.616144
 30
0.0
 41
0.019685
 42
0.019685
  0
INSERT
  5
1DE
100
AcDbEntity
  8
ZONE_JUNCTIONS
370
    15
390
0
  6
Continuous
 62
     7
100
AcDbBlockReference
  2
Junction
 10
211.852488
 20
167.616144
 30
0.0
 41
0.019685
 42
0.019685
  0
INSERT
  5
1DF
100
AcDbEntity
  8
ZONE_JUNCTIONS
370
    15
390
0
  6
Continuous
 62
     7
100
AcDbBlockReference
  2
Junction
 10
233.853801
 20
167.616144
 30
0.0
 41
0.019685
 42
0.019685
  0
INSERT
  5
1E0
100
AcDbEntity
  8
ZONE_JUNCTIONS
370
    15
390
0
  6
Continuous
 62
     7
100
AcDbBlockReference
  2
Junction
 10
255.855114
 20
167.616144
 30
0.0
 41
0.019685
 42
0.019685
  0
INSERT
  5
1E1
100
AcDbEntity
  8
ZONE_JUNCTIONS
370
    15
390
0
  6
Continuous
 62
     7
100
AcDbBlockReference
  2
Junction
 10
277.856426
 20
167.616144
 30
0.0
 41
0.019685
 42
0.019685
  0
INSERT
  5
1E2
100
AcDbEntity
  8
ZONE_JUNCTIONS
370
    15
390
0
  6
Continuous
 62
     7
100
AcDbBlockReference
  2
Junction
 10
299.857739
 20
167.616144
 30
0.0
 41
0.019685
 42
0.019685
  0
INSERT
  5
1F0
100
AcDbEntity
  8
MISC_HYDRAULIC
370
    40
390
0
  6
Continuous
 62
     6
100
AcDbBlockReference
  2
Water Supply
 10
134.994962
 20
266.699439
 30
0.0
 41
0.246063
 42
0.246063
  0
LINE
  5
1F1
100
AcDbEntity
  8
ZONE_PIPES
370
    30
390
0
  6
Continuous
 62
   201
100
AcDbLine
 10
123.847231
 20
167.616144
 30
0.0
 11
134.847891
 21
167.616144
 31
0.0
  0
LINE
  5
1F2
100
AcDbEntity
  8
ZONE_PIPES
370
    30
390
0
  6
Continuous
 62
   201
100
AcDbLine
 10
101.845919
 20
167.616144
 30
0.0
 11
123.847231
 21
167.616144
 31
0.0
  0
LINE
  5
1F3
100
AcDbEntity
  8
ZONE_PIPES
370
    30
390
0
  6
Continuous
 62
   174
100
AcDbLine
 10
79.844606
 20
167.616144
 30
0.0
 11
101.845919
 21
167.616144
 31
0.0
  0
LINE
  5
1F4
100
AcDbEntity
  8
ZONE_PIPES
370
    30
390
0
  6
Continuous
 62
   174
100
AcDbLine
 10
57.843294
 20
167.616144
 30
0.0
 11
79.844606
 21
167.616144
 31
0.0
  0
LINE
  5
1F5
100
AcDbEntity
  8
ZONE_PIPES
370
    30
390
0
  6
Continuous
 62
   174
100
AcDbLine
 10
35.841981
 20
167.616144
 30
0.0
 11
57.843294
 21
167.616144
 31
0.0
  0
LINE
  5
1F6
100
AcDbEntity
  8
ZONE_PIPES
370
    30
390
0
  6
Continuous
 62
     3
100
AcDbLine
 10
13.840668
 20
167.616144
 30
0.0
 11
35.841981
 21
167.616144
 31
0.0
  0
LINE
  5
1F7
100
AcDbEntity
  8
ZONE_PIPES
370
    30
390
0
  6
Continuous
 62
     3
100
AcDbLine
 10
-8.160644
 20
167.616144
 30
0.0
 11
13.840668
 21
167.616144
 31
0.0
  0
LINE
  5
1F8
100
AcDbEntity
  8
ZONE_PIPES
370
    30
390
0
  6
Continuous
 62
     1
100
AcDbLine
 10
-30.161957
 20
167.616144
 30
0.0
 11
-8.160644
 21
167.616144
 31
0.0
  0
LINE
  5
1F9
100
AcDbEntity
  8
ZONE_PIPES
370
    30
390
0
  6
Continuous
 62
   201
100
AcDbLine
 10
134.847891
 20
167.616144
 30
0.0
 11
145.848551
 21
167.616144
 31
0.0
  0
LINE
  5
1FA
100
AcDbEntity
  8
ZONE_PIPES
370
    30
390
0
  6
Continuous
 62
   201
100
AcDbLine
 10
145.848551
 20
167.616144
 30
0.0
 11
167.849863
 21
167.616144
 31
0.0
  0
LINE
  5
1FB
100
AcDbEntity
  8
ZONE_PIPES
370
    30
390
0
  6
Continuous
 62
   174
100
AcDbLine
 10
167.849863
 20
167.616144
 30
0.0
 11
189.851176
 21
167.616144
 31
0.0
  0
LINE
  5
1FC
100
AcDbEntity
  8
ZONE_PIPES
370
    30
390
0
  6
Continuous
 62
   174
100
AcDbLine
 10
189.851176
 20
167.616144
 30
0.0
 11
211.852488
 21
167.616144
 31
0.0
  0
LINE
  5
1FD
100
AcDbEntity
  8
ZONE_PIPES
370
    30
390
0
  6
Continuous
 62
   174
100
AcDbLine
 10
211.852488
 20
167.616144
 30
0.0
 11
233.853801
 21
167.616144
 31
0.0
  0
LINE
  5
1FE
100
AcDbEntity
  8
ZONE_PIPES
370
    30
390
0
  6
Continuous
 62
     3
100
AcDbLine
 10
233.853801
 20
167.616144
 30
0.0
 11
255.855114
 21
167.616144
 31
0.0
  0
LINE
  5
1FF
100
AcDbEntity
  8
ZONE_PIPES
370
    30
390
0
  6
Continuous
 62
     3
100
AcDbLine
 10
255.855114
 20
167.616144
 30
0.0
 11
277.856426
 21
167.616144
 31
0.0
  0
LINE
  5
200
100
AcDbEntity
  8
ZONE_PIPES
370
    30
390
0
  6
Continuous
 62
     1
100
AcDbLine
 10
277.856426
 20
167.616144
 30
0.0
 11
299.857739
 21
167.616144
 31
0.0
  0
LINE
  5
201
100
AcDbEntity
  8
SPRAYLINES
370
    15
390
0
  6
Continuous
 62
     3
100
AcDbLine
 10
123.847231
 20
92.616139
 30
0.0
 11
123.847231
 21
167.616144
 31
0.0
  0
LINE
  5
202
100
AcDbEntity
  8
SPRAYLINES
370
    15
390
0
  6
Continuous
 62
     3
100
AcDbLine
 10
123.847231
 20
167.616144
 30
0.0
 11
123.847231
 21
242.616148
 31
0.0
  0
LINE
  5
203
100
AcDbEntity
  8
SPRAYLINES
370
    15
390
0
  6
Continuous
 62
     3
100
AcDbLine
 10
101.845919
 20
92.616139
 30
0.0
 11
101.845919
 21
167.616144
 31
0.0
  0
LINE
  5
204
100
AcDbEntity
  8
SPRAYLINES
370
    15
390
0
  6
Continuous
 62
     3
100
AcDbLine
 10
101.845919
 20
167.616144
 30
0.0
 11
101.845919
 21
242.616148
 31
0.0
  0
LINE
  5
205
100
AcDbEntity
  8
SPRAYLINES
370
    15
390
0
  6
Continuous
 62
     3
100
AcDbLine
 10
79.844606
 20
92.616139
 30
0.0
 11
79.844606
 21
167.616144
 31
0.0
  0
LINE
  5
206
100
AcDbEntity
  8
SPRAYLINES
370
    15
390
0
  6
Continuous
 62
     3
100
AcDbLine
 10
79.844606
 20
167.616144
 30
0.0
 11
79.844606
 21
242.616148
 31
0.0
  0
LINE
  5
207
100
AcDbEntity
  8
SPRAYLINES
370
    15
390
0
  6
Continuous
 62
     3
100
AcDbLine
 10
57.843294
 20
92.616139
 30
0.0
 11
57.843294
 21
167.616144
 31
0.0
  0
LINE
  5
208
100
AcDbEntity
  8
SPRAYLINES
370
    15
390
0
  6
Continuous
 62
     3
100
AcDbLine
 10
57.843294
 20
167.616144
 30
0.0
 11
57.843294
 21
242.616148
 31
0.0
  0
LINE
  5
209
100
AcDbEntity
  8
SPRAYLINES
370
    15
390
0
  6
Continuous
 62
     3
100
AcDbLine
 10
35.841981
 20
92.616139
 30
0.0
 11
35.841981
 21
167.616144
 31
0.0
  0
LINE
  5
20A
100
AcDbEntity
  8
SPRAYLINES
370
    15
390
0
  6
Continuous
 62
     3
100
AcDbLine
 10
35.841981
 20
167.616144
 30
0.0
 11
35.841981
 21
242.616148
 31
0.0
  0
LINE
  5
20B
100
AcDbEntity
  8
SPRAYLINES
370
    15
390
0
  6
Continuous
 62
     3
100
AcDbLine
 10
13.840668
 20
92.616139
 30
0.0
 11
13.840668
 21
167.616144
 31
0.0
  0
LINE
  5
20C
100
AcDbEntity
  8
SPRAYLINES
370
    15
390
0
  6
Continuous
 62
     3
100
AcDbLine
 10
13.840668
 20
167.616144
 30
0.0
 11
13.840668
 21
242.616148
 31
0.0
  0
LINE
  5
20D
100
AcDbEntity
  8
SPRAYLINES
370
    15
390
0
  6
Continuous
 62
     3
100
AcDbLine
 10
-8.160644
 20
92.616139
 30
0.0
 11
-8.160644
 21
167.616144
 31
0.0
  0
LINE
  5
20E
100
AcDbEntity
  8
SPRAYLINES
370
    15
390
0
  6
Continuous
 62
     3
100
AcDbLine
 10
-8.160644
 20
167.616144
 30
0.0
 11
-8.160644
 21
242.616148
 31
0.0
  0
LINE
  5
20F
100
AcDbEntity
  8
SPRAYLINES
370
    15
390
0
  6
Continuous
 62
     3
100
AcDbLine
 10
-30.161957
 20
92.616139
 30
0.0
 11
-30.161957
 21
167.616144
 31
0.0
  0
LINE
  5
210
100
AcDbEntity
  8
SPRAYLINES
370
    15
390
0
  6
Continuous
 62
     3
100
AcDbLine
 10
-30.161957
 20
167.616144
 30
0.0
 11
-30.161957
 21
242.616148
 31
0.0
  0
LINE
  5
211
100
AcDbEntity
  8
SPRAYLINES
370
    15
390
0
  6
Continuous
 62
     3
100
AcDbLine
 10
145.848551
 20
92.616139
 30
0.0
 11
145.848551
 21
167.616144
 31
0.0
  0
LINE
  5
212
100
AcDbEntity
  8
SPRAYLINES
370
    15
390
0
  6
Continuous
 62
     3
100
AcDbLine
 10
145.848551
 20
167.616144
 30
0.0
 11
145.848551
 21
242.616148
 31
0.0
  0
LINE
  5
213
100
AcDbEntity
  8
SPRAYLINES
370
    15
390
0
  6
Continuous
 62
     3
100
AcDbLine
 10
167.849863
 20
92.616139
 30
0.0
 11
167.849863
 21
167.616144
 31
0.0
  0
LINE
  5
214
100
AcDbEntity
  8
SPRAYLINES
370
    15
390
0
  6
Continuous
 62
     3
100
AcDbLine
 10
167.849863
 20
167.616144
 30
0.0
 11
167.849863
 21
242.616148
 31
0.0
  0
LINE
  5
215
100
AcDbEntity
  8
SPRAYLINES
370
    15
390
0
  6
Continuous
 62
     3
100
AcDbLine
 10
189.851176
 20
92.616139
 30
0.0
 11
189.851176
 21
167.616144
 31
0.0
  0
LINE
  5
216
100
AcDbEntity
  8
SPRAYLINES
370
    15
390
0
  6
Continuous
 62
     3
100
AcDbLine
 10
189.851176
 20
167.616144
 30
0.0
 11
189.851176
 21
242.616148
 31
0.0
  0
LINE
  5
217
100
AcDbEntity
  8
SPRAYLINES
370
    15
390
0
  6
Continuous
 62
     3
100
AcDbLine
 10
211.852488
 20
92.616139
 30
0.0
 11
211.852488
 21
167.616144
 31
0.0
  0
LINE
  5
218
100
AcDbEntity
  8
SPRAYLINES
370
    15
390
0
  6
Continuous
 62
     3
100
AcDbLine
 10
211.852488
 20
167.616144
 30
0.0
 11
211.852488
 21
242.616148
 31
0.0
  0
LINE
  5
219
100
AcDbEntity
  8
SPRAYLINES
370
    15
390
0
  6
Continuous
 62
     3
100
AcDbLine
 10
233.853801
 20
92.616139
 30
0.0
 11
233.853801
 21
167.616144
 31
0.0
  0
LINE
  5
21A
100
AcDbEntity
  8
SPRAYLINES
370
    15
390
0
  6
Continuous
 62
     3
100
AcDbLine
 10
233.853801
 20
167.616144
 30
0.0
 11
233.853801
 21
242.616148
 31
0.0
  0
LINE
  5
21B
100
AcDbEntity
  8
SPRAYLINES
370
    15
390
0
  6
Continuous
 62
     3
100
AcDbLine
 10
255.855114
 20
92.616139
 30
0.0
 11
255.855114
 21
167.616144
 31
0.0
  0
LINE
  5
21C
100
AcDbEntity
  8
SPRAYLINES
370
    15
390
0
  6
Continuous
 62
     3
100
AcDbLine
 10
255.855114
 20
167.616144
 30
0.0
 11
255.855114
 21
242.616148
 31
0.0
  0
LINE
  5
21D
100
AcDbEntity
  8
SPRAYLINES
370
    15
390
0
  6
Continuous
 62
     3
100
AcDbLine
 10
277.856426
 20
92.616139
 30
0.0
 11
277.856426
 21
167.616144
 31
0.0
  0
LINE
  5
21E
100
AcDbEntity
  8
SPRAYLINES
370
    15
390
0
  6
Continuous
 62
     3
100
AcDbLine
 10
277.856426
 20
167.616144
 30
0.0
 11
277.856426
 21
242.616148
 31
0.0
  0
LINE
  5
21F
100
AcDbEntity
  8
SPRAYLINES
370
    15
390
0
  6
Continuous
 62
     3
100
AcDbLine
 10
299.857739
 20
92.616139
 30
0.0
 11
299.857739
 21
167.616144
 31
0.0
  0
LINE
  5
220
100
AcDbEntity
  8
SPRAYLINES
370
    15
390
0
  6
Continuous
 62
     3
100
AcDbLine
 10
299.857739
 20
167.616144
 30
0.0
 11
299.857739
 21
242.616148
 31
0.0
  0
LINE
  5
221
100
AcDbEntity
  8
MAINLINE_PIPES
370
    40
390
0
  6
Continuous
 62
   201
100
AcDbLine
 10
134.847891
 20
167.616144
 30
0.0
 11
134.994962
 21
266.699439
 31
0.0
  0
ENDSEC
  0
SECTION
  2
OBJECTS
  0
DICTIONARY
  5
19
100
AcDbDictionary
280
     0
281
     1
  3
ACAD_GROUP
350
1A
  3
ACAD_MLINESTYLE
350
1B
  3
ACAD_LAYOUT
350
1E
  3
ACAD_PLOTSETTINGS
350
22
  3
ACAD_PLOTSTYLENAME
350
1F
  3
ACAD_WIPEOUT_VARS
350
23
  0
DICTIONARY
  5
1A
102
{ACAD_REACTORS
330
19
102
}
100
AcDbDictionary
280
     0
281
     1
  0
DICTIONARY
  5
1B
102
{ACAD_REACTORS
330
19
102
}
100
AcDbDictionary
280
     0
281
     1
  3
Standard
350
1C
  0
MLINESTYLE
  5
1C
102
{ACAD_REACTORS
330
1B
102
}
100
AcDbMlineStyle
  2
Standard
 70
     0
  3

 62
     0
 51
90.0
 52
90.0
 71
     2
 49
0.5
 62
   256
  6
ByLayer
 49
-0.5
 62
   256
  6
ByLayer
  0
ACDBDICTIONARYWDFLT
  5
1F
102
{ACAD_REACTORS
330
19
102
}
100
AcDbDictionary
281
     1
  3
Normal
350
1D
100
AcDbDictionaryWithDefault
340
1D
  0
ACDBPLACEHOLDER
  5
1D
102
{ACAD_REACTORS
330
1F
102
}
  0
LAYOUT
  5
20
102
{ACAD_REACTORS
330
1E
102
}
100
AcDbPlotSettings
  1

  2

  4

  6

 40
0.0
 41
0.0
 42
0.0
 43
0.0
 44
0.0
 45
0.0
 46
0.0
 47
0.0
 48
0.0
 49
0.0
140
0.0
141
0.0
142
1.0
143
1.0
 70
  1024
 72
     0
 73
     0
 74
     0
  7

 75
     0
147
1.0
148
0.0
149
0.0
100
AcDbLayout
  1
Model
 70
     0
 71
     0
 10
0.0
 20
0.0
 11
0.0
 21
0.0
 12
0.0
 22
0.0
 32
0.0
 14
0.0
 24
0.0
 34
0.0
 15
0.0
 25
0.0
 35
0.0
146
0.0
 13
0.0
 23
0.0
 33
0.0
 16
0.0
 26
0.0
 36
0.0
 17
0.0
 27
0.0
 37
0.0
 76
     0
330
A
331
0
345
0
346
0
  0
LAYOUT
  5
21
102
{ACAD_REACTORS
330
1E
102
}
100
AcDbPlotSettings
  1

  2

  4

  6

 40
0.0
 41
0.0
 42
0.0
 43
0.0
 44
0.0
 45
0.0
 46
0.0
 47
0.0
 48
0.0
 49
0.0
140
0.0
141
0.0
142
1.0
143
1.0
 70
     0
 72
     0
 73
     0
 74
     0
  7

 75
     0
147
1.0
148
0.0
149
0.0
100
AcDbLayout
  1
Layout1
 70
     0
 71
     0
 10
0.0
 20
0.0
 11
0.0
 21
0.0
 12
0.0
 22
0.0
 32
0.0
 14
0.0
 24
0.0
 34
0.0
 15
0.0
 25
0.0
 35
0.0
146
0.0
 13
0.0
 23
0.0
 33
0.0
 16
0.0
 26
0.0
 36
0.0
 17
0.0
 27
0.0
 37
0.0
 76
     0
330
B
331
0
345
0
346
0
  0
DICTIONARY
  5
1E
102
{ACAD_REACTORS
330
19
102
}
100
AcDbDictionary
280
     0
281
     1
  3
Layout1
350
21
  3
Model
350
20
  0
DICTIONARY
  5
22
102
{ACAD_REACTORS
330
19
102
}
100
AcDbDictionary
280
     0
281
     1
  0
WIPEOUTVARIABLES
  5
23
100
AcDbWipeoutVariables
 70
     1
  0
ENDSEC
  0
EOF
